<svg xmlns="http://www.w3.org/2000/svg" viewBox="-17.9563 177.292 625.5272938964845 220.41630389890466"><rect height="100%" width="100%" x="-17.9563" y="177.292" fill="rgba(255, 255, 255, 1)"/> <g transform="rotate(0 101.7354216950043 287.50015194945234)"><svg xmlns="http://www.w3.org/2000/svg" xmlns:xlink="http://www.w3.org/1999/xlink" version="1.1" id="Layer_2_00000005263639699203046700000009077297999803242173_" x="52.0437" y="247.292" viewBox="216.39999389648438 323.5 179.20001220703125 145" xml:space="preserve" height="80.41630389890466" width="99.38344339000861" preserveAspectRatio="xMinYMin" enable-background="new 0 0 612 792" style="overflow: visible;"><rect x="335.9" y="368.9" class="st0" width="59.7" height="54.1" style="fill: #01CC8A;"></rect><polygon class="st1" points="335.9,323.5 395.6,423.1 335.9,423.1 276.1,323.5  " style="fill: #026587;"></polygon><rect x="276.1" y="323.5" class="st0" width="59.7" height="145" style="fill: #01CC8A;"></rect><polygon class="st2" points="276.1,468.5 216.4,368.9 276.1,368.9 335.9,468.5  " style="fill: #019888;"></polygon><rect x="216.4" y="368.9" class="st3" width="59.7" height="54.1" style="fill: #00FF8B;"></rect></svg></g> <g transform="rotate(0 353.6209969482422 287.4999996185303)"><svg y="261.35" viewBox="1.600000023841858 13.300000190734863 367.8999938964844 52.29999923706055" x="169.671" height="52.29999923706055" width="367.8999938964844" right="251.5" style="overflow: visible;"><g fill="#003343" fill-opacity="1" style=""><path d="M1.60 17.60L27.20 17.60L27.20 23.25L17.90 23.25L17.90 52.50L10.90 52.50L10.90 23.25L1.60 23.25L1.60 17.60ZM47.90 24.40Q51.05 24.40 53.50 25.77Q55.95 27.15 57.33 29.82Q58.70 32.50 58.70 36.25L58.70 36.25L58.70 52.50L51.70 52.50L51.70 37.20Q51.70 33.90 50.05 32.13Q48.40 30.35 45.55 30.35L45.55 30.35Q42.65 30.35 40.98 32.13Q39.30 33.90 39.30 37.20L39.30 37.20L39.30 52.50L32.30 52.50L32.30 15.50L39.30 15.50L39.30 28.25Q40.65 26.45 42.90 25.42Q45.15 24.40 47.90 24.40L47.90 24.40ZM68.90 21.50Q67.05 21.50 65.83 20.32Q64.60 19.15 64.60 17.40L64.60 17.40Q64.60 15.65 65.83 14.48Q67.05 13.30 68.90 13.30L68.90 13.30Q70.75 13.30 71.98 14.48Q73.20 15.65 73.20 17.40L73.20 17.40Q73.20 19.15 71.98 20.32Q70.75 21.50 68.90 21.50L68.90 21.50ZM65.35 24.80L72.35 24.80L72.35 52.50L65.35 52.50L65.35 24.80ZM94.60 24.40Q99.55 24.40 102.60 27.52Q105.65 30.65 105.65 36.25L105.65 36.25L105.65 52.50L98.65 52.50L98.65 37.20Q98.65 33.90 97.00 32.13Q95.35 30.35 92.50 30.35L92.50 30.35Q89.60 30.35 87.93 32.13Q86.25 33.90 86.25 37.20L86.25 37.20L86.25 52.50L79.25 52.50L79.25 24.80L86.25 24.80L86.25 28.25Q87.65 26.45 89.83 25.42Q92.00 24.40 94.60 24.40L94.60 24.40ZM137.80 52.50L128.70 52.50L119.30 40.70L119.30 52.50L112.30 52.50L112.30 15.50L119.30 15.50L119.30 36.55L128.60 24.80L137.70 24.80L125.50 38.70L137.80 52.50ZM141.50 17.60L148.50 17.60L148.50 52.50L141.50 52.50L141.50 17.60ZM153.55 17.60L179.15 17.60L179.15 23.25L169.85 23.25L169.85 52.50L162.85 52.50L162.85 23.25L153.55 23.25L153.55 17.60ZM204.05 34.60Q207 35.15 208.90 37.55Q210.80 39.95 210.80 43.05L210.80 43.05Q210.80 45.85 209.43 47.98Q208.05 50.10 205.45 51.30Q202.85 52.50 199.30 52.50L199.30 52.50L184.25 52.50L184.25 17.60L198.65 17.60Q202.20 17.60 204.78 18.75Q207.35 19.90 208.68 21.95Q210 24 210 26.60L210 26.60Q210 29.65 208.38 31.70Q206.75 33.75 204.05 34.60L204.05 34.60ZM191.25 23.25L191.25 32L197.65 32Q200.15 32 201.50 30.88Q202.85 29.75 202.85 27.65L202.85 27.65Q202.85 25.55 201.50 24.40Q200.15 23.25 197.65 23.25L197.65 23.25L191.25 23.25ZM198.30 46.80Q200.85 46.80 202.28 45.60Q203.70 44.40 203.70 42.20L203.70 42.20Q203.70 39.95 202.20 38.67Q200.70 37.40 198.15 37.40L198.15 37.40L191.25 37.40L191.25 46.80L198.30 46.80ZM242.15 38.05Q242.15 39.55 241.95 40.75L241.95 40.75L221.70 40.75Q221.95 43.75 223.80 45.45Q225.65 47.15 228.35 47.15L228.35 47.15Q232.25 47.15 233.90 43.80L233.90 43.80L241.45 43.80Q240.25 47.80 236.85 50.38Q233.45 52.95 228.50 52.95L228.50 52.95Q224.50 52.95 221.33 51.17Q218.15 49.40 216.38 46.15Q214.60 42.90 214.60 38.65L214.60 38.65Q214.60 34.35 216.35 31.10Q218.10 27.85 221.25 26.10Q224.40 24.35 228.50 24.35L228.50 24.35Q232.45 24.35 235.58 26.05Q238.70 27.75 240.43 30.88Q242.15 34 242.15 38.05L242.15 38.05ZM221.75 36.05L234.90 36.05Q234.85 33.35 232.95 31.72Q231.05 30.10 228.30 30.10L228.30 30.10Q225.70 30.10 223.93 31.67Q222.15 33.25 221.75 36.05L221.75 36.05ZM266.30 24.80L273.75 24.80L256.60 65.60L249.15 65.60L255.15 51.80L244.05 24.80L251.90 24.80L259.05 44.15L266.30 24.80ZM289.80 52.95Q285.80 52.95 282.60 51.17Q279.40 49.40 277.57 46.15Q275.75 42.90 275.75 38.65L275.75 38.65Q275.75 34.40 277.63 31.15Q279.50 27.90 282.75 26.13Q286 24.35 290 24.35L290 24.35Q294 24.35 297.25 26.13Q300.50 27.90 302.38 31.15Q304.25 34.40 304.25 38.65L304.25 38.65Q304.25 42.90 302.32 46.15Q300.40 49.40 297.13 51.17Q293.85 52.95 289.80 52.95L289.80 52.95ZM289.80 46.85Q291.70 46.85 293.38 45.92Q295.05 45 296.05 43.15Q297.05 41.30 297.05 38.65L297.05 38.65Q297.05 34.70 294.98 32.58Q292.90 30.45 289.90 30.45L289.90 30.45Q286.90 30.45 284.88 32.58Q282.85 34.70 282.85 38.65L282.85 38.65Q282.85 42.60 284.82 44.73Q286.80 46.85 289.80 46.85L289.80 46.85ZM324.75 24.40Q329.70 24.40 332.75 27.52Q335.80 30.65 335.80 36.25L335.80 36.25L335.80 52.50L328.80 52.50L328.80 37.20Q328.80 33.90 327.15 32.13Q325.50 30.35 322.65 30.35L322.65 30.35Q319.75 30.35 318.07 32.13Q316.40 33.90 316.40 37.20L316.40 37.20L316.40 52.50L309.40 52.50L309.40 24.80L316.40 24.80L316.40 28.25Q317.80 26.45 319.97 25.42Q322.15 24.40 324.75 24.40L324.75 24.40ZM340.65 38.55Q340.65 34.35 342.32 31.10Q344 27.85 346.90 26.10Q349.80 24.35 353.35 24.35L353.35 24.35Q356.05 24.35 358.50 25.52Q360.95 26.70 362.40 28.65L362.40 28.65L362.40 15.50L369.50 15.50L369.50 52.50L362.40 52.50L362.40 48.40Q361.10 50.45 358.75 51.70Q356.40 52.95 353.30 52.95L353.30 52.95Q349.80 52.95 346.90 51.15Q344 49.35 342.32 46.08Q340.65 42.80 340.65 38.55L340.65 38.55ZM362.45 38.65Q362.45 36.10 361.45 34.27Q360.45 32.45 358.75 31.47Q357.05 30.50 355.10 30.50L355.10 30.50Q353.15 30.50 351.50 31.45Q349.85 32.40 348.82 34.22Q347.80 36.05 347.80 38.55L347.80 38.55Q347.80 41.05 348.82 42.92Q349.85 44.80 351.52 45.80Q353.20 46.80 355.10 46.80L355.10 46.80Q357.05 46.80 358.75 45.83Q360.45 44.85 361.45 43.02Q362.45 41.20 362.45 38.65L362.45 38.65Z" transform="translate(0, 0)"></path></g></svg></g></svg>