<svg xmlns="http://www.w3.org/2000/svg" xmlns:xlink="http://www.w3.org/1999/xlink" width="3600" zoomAndPan="magnify" viewBox="0 0 2700 2699.999998" height="3600" preserveAspectRatio="xMidYMid meet" version="1.0"><defs><g/><clipPath id="fe6dfefd86"><path d="M 0 1290 L 2700 1290 L 2700 1865.199219 L 0 1865.199219 Z M 0 1290 " clip-rule="nonzero"/></clipPath><clipPath id="c5f95855a2"><path d="M -961.976562 1878.042969 C -792.164062 1708.136719 -622.253906 1538.324219 -452.441406 1368.421875 C -474.171875 1368.421875 -495.816406 1368.421875 -517.546875 1368.421875 C -364.035156 1521.933594 -210.609375 1675.355469 -57.097656 1828.867188 C -39.507812 1846.457031 -9.578125 1846.457031 8.011719 1828.867188 C 161.527344 1675.355469 315.042969 1521.933594 468.554688 1368.421875 C 446.824219 1368.421875 425.183594 1368.421875 403.449219 1368.421875 C 556.964844 1521.933594 710.386719 1675.355469 863.902344 1828.867188 C 881.492188 1846.457031 911.417969 1846.457031 929.007812 1828.867188 C 1082.433594 1675.355469 1235.945312 1521.933594 1389.371094 1368.421875 C 1367.636719 1368.421875 1345.996094 1368.421875 1324.261719 1368.421875 C 1477.777344 1521.933594 1631.292969 1675.355469 1784.714844 1828.867188 C 1802.304688 1846.457031 1832.234375 1846.457031 1849.820312 1828.867188 C 2003.335938 1675.355469 2156.851562 1521.933594 2310.457031 1368.421875 C 2288.726562 1368.421875 2267.085938 1368.421875 2245.351562 1368.421875 C 2398.867188 1521.933594 2552.289062 1675.355469 2705.804688 1828.867188 C 2723.390625 1846.457031 2753.320312 1846.457031 2770.910156 1828.867188 C 2924.425781 1675.355469 3077.847656 1521.933594 3231.363281 1368.421875 C 3209.628906 1368.421875 3187.988281 1368.421875 3166.253906 1368.421875 C 3331.191406 1533.445312 3496.214844 1698.375 3661.148438 1863.398438 C 3703.144531 1905.390625 3768.25 1840.285156 3726.257812 1798.292969 C 3561.324219 1633.269531 3396.296875 1468.335938 3231.363281 1303.3125 C 3213.773438 1285.722656 3183.84375 1285.722656 3166.253906 1303.3125 C 3012.742188 1456.824219 2859.316406 1610.246094 2705.804688 1763.757812 C 2727.535156 1763.757812 2749.175781 1763.757812 2770.910156 1763.757812 C 2617.394531 1610.246094 2463.972656 1456.824219 2310.457031 1303.3125 C 2292.871094 1285.722656 2262.941406 1285.722656 2245.351562 1303.3125 C 2091.835938 1456.824219 1938.320312 1610.246094 1784.714844 1763.757812 C 1806.445312 1763.757812 1828.089844 1763.757812 1849.820312 1763.757812 C 1696.308594 1610.246094 1542.792969 1456.824219 1389.371094 1303.3125 C 1371.78125 1285.722656 1341.851562 1285.722656 1324.261719 1303.3125 C 1170.839844 1456.824219 1017.324219 1610.246094 863.902344 1763.757812 C 885.632812 1763.757812 907.277344 1763.757812 929.007812 1763.757812 C 775.496094 1610.246094 622.070312 1456.824219 468.558594 1303.3125 C 450.96875 1285.722656 421.039062 1285.722656 403.449219 1303.3125 C 249.933594 1456.824219 96.417969 1610.246094 -57.097656 1763.757812 C -35.363281 1763.757812 -13.722656 1763.757812 8.011719 1763.757812 C -145.503906 1610.246094 -298.925781 1456.824219 -452.441406 1303.3125 C -470.03125 1285.722656 -499.960938 1285.722656 -517.546875 1303.3125 C -687.363281 1473.21875 -857.269531 1643.121094 -1027.085938 1812.933594 C -1069.078125 1854.925781 -1003.96875 1920.035156 -961.976562 1878.042969 Z M -961.976562 1878.042969 " clip-rule="nonzero"/></clipPath><linearGradient x1="102.649987" gradientTransform="matrix(9.209049, 0, 0, 9.208921, -945.308778, 1108.636549)" y1="52.367001" x2="395.839851" gradientUnits="userSpaceOnUse" y2="52.367001" id="b4a21e9ce5"><stop stop-opacity="1" stop-color="rgb(91.378784%, 86.077881%, 52.89917%)" offset="0"/><stop stop-opacity="1" stop-color="rgb(91.424561%, 85.842896%, 52.89917%)" offset="0.00390625"/><stop stop-opacity="1" stop-color="rgb(91.471863%, 85.60791%, 52.89917%)" offset="0.0078125"/><stop stop-opacity="1" stop-color="rgb(91.517639%, 85.372925%, 52.89917%)" offset="0.0117187"/><stop stop-opacity="1" stop-color="rgb(91.564941%, 85.139465%, 52.89917%)" offset="0.015625"/><stop stop-opacity="1" stop-color="rgb(91.612244%, 84.90448%, 52.89917%)" offset="0.0195312"/><stop stop-opacity="1" stop-color="rgb(91.659546%, 84.669495%, 52.89917%)" offset="0.0234375"/><stop stop-opacity="1" stop-color="rgb(91.705322%, 84.434509%, 52.89917%)" offset="0.0273438"/><stop stop-opacity="1" stop-color="rgb(91.752625%, 84.199524%, 52.89917%)" offset="0.03125"/><stop stop-opacity="1" stop-color="rgb(91.799927%, 83.964539%, 52.89917%)" offset="0.0351563"/><stop stop-opacity="1" stop-color="rgb(91.847229%, 83.729553%, 52.89917%)" offset="0.0390625"/><stop stop-opacity="1" stop-color="rgb(91.893005%, 83.494568%, 52.89917%)" offset="0.0429688"/><stop stop-opacity="1" stop-color="rgb(91.940308%, 83.261108%, 52.89917%)" offset="0.046875"/><stop stop-opacity="1" stop-color="rgb(91.986084%, 83.026123%, 52.89917%)" offset="0.0507812"/><stop stop-opacity="1" stop-color="rgb(92.033386%, 82.791138%, 52.89917%)" offset="0.0546875"/><stop stop-opacity="1" stop-color="rgb(92.080688%, 82.556152%, 52.89917%)" offset="0.0585937"/><stop stop-opacity="1" stop-color="rgb(92.127991%, 82.321167%, 52.89917%)" offset="0.0625"/><stop stop-opacity="1" stop-color="rgb(92.173767%, 82.086182%, 52.89917%)" offset="0.0664062"/><stop stop-opacity="1" stop-color="rgb(92.221069%, 81.852722%, 52.89917%)" offset="0.0703125"/><stop stop-opacity="1" stop-color="rgb(92.268372%, 81.617737%, 52.89917%)" offset="0.0742187"/><stop stop-opacity="1" stop-color="rgb(92.315674%, 81.382751%, 52.89917%)" offset="0.078125"/><stop stop-opacity="1" stop-color="rgb(92.36145%, 81.147766%, 52.89917%)" offset="0.0820312"/><stop stop-opacity="1" stop-color="rgb(92.408752%, 80.912781%, 52.89917%)" offset="0.0859375"/><stop stop-opacity="1" stop-color="rgb(92.454529%, 80.677795%, 52.89917%)" offset="0.0898437"/><stop stop-opacity="1" stop-color="rgb(92.501831%, 80.444336%, 52.89917%)" offset="0.09375"/><stop stop-opacity="1" stop-color="rgb(92.549133%, 80.209351%, 52.89917%)" offset="0.0976562"/><stop stop-opacity="1" stop-color="rgb(92.596436%, 79.974365%, 52.89917%)" offset="0.101562"/><stop stop-opacity="1" stop-color="rgb(92.642212%, 79.73938%, 52.89917%)" offset="0.105469"/><stop stop-opacity="1" stop-color="rgb(92.689514%, 79.504395%, 52.89917%)" offset="0.109375"/><stop stop-opacity="1" stop-color="rgb(92.736816%, 79.269409%, 52.89917%)" offset="0.113281"/><stop stop-opacity="1" stop-color="rgb(92.784119%, 79.03595%, 52.89917%)" offset="0.117187"/><stop stop-opacity="1" stop-color="rgb(92.829895%, 78.800964%, 52.89917%)" offset="0.121094"/><stop stop-opacity="1" stop-color="rgb(92.877197%, 78.565979%, 52.89917%)" offset="0.125"/><stop stop-opacity="1" stop-color="rgb(92.922974%, 78.330994%, 52.89917%)" offset="0.128906"/><stop stop-opacity="1" stop-color="rgb(92.970276%, 78.096008%, 52.89917%)" offset="0.132813"/><stop stop-opacity="1" stop-color="rgb(93.017578%, 77.861023%, 52.89917%)" offset="0.136719"/><stop stop-opacity="1" stop-color="rgb(93.06488%, 77.627563%, 52.89917%)" offset="0.140625"/><stop stop-opacity="1" stop-color="rgb(93.110657%, 77.392578%, 52.89917%)" offset="0.144531"/><stop stop-opacity="1" stop-color="rgb(93.157959%, 77.157593%, 52.89917%)" offset="0.148438"/><stop stop-opacity="1" stop-color="rgb(93.205261%, 76.922607%, 52.89917%)" offset="0.152344"/><stop stop-opacity="1" stop-color="rgb(93.252563%, 76.687622%, 52.89917%)" offset="0.15625"/><stop stop-opacity="1" stop-color="rgb(93.29834%, 76.452637%, 52.89917%)" offset="0.160156"/><stop stop-opacity="1" stop-color="rgb(93.345642%, 76.217651%, 52.89917%)" offset="0.164062"/><stop stop-opacity="1" stop-color="rgb(93.391418%, 75.982666%, 52.89917%)" offset="0.167969"/><stop stop-opacity="1" stop-color="rgb(93.438721%, 75.749207%, 52.89917%)" offset="0.171875"/><stop stop-opacity="1" stop-color="rgb(93.486023%, 75.514221%, 52.89917%)" offset="0.175781"/><stop stop-opacity="1" stop-color="rgb(93.533325%, 75.279236%, 52.89917%)" offset="0.179687"/><stop stop-opacity="1" stop-color="rgb(93.579102%, 75.04425%, 52.89917%)" offset="0.183594"/><stop stop-opacity="1" stop-color="rgb(93.626404%, 74.809265%, 52.89917%)" offset="0.1875"/><stop stop-opacity="1" stop-color="rgb(93.673706%, 74.57428%, 52.89917%)" offset="0.191406"/><stop stop-opacity="1" stop-color="rgb(93.721008%, 74.34082%, 52.89917%)" offset="0.195312"/><stop stop-opacity="1" stop-color="rgb(93.766785%, 74.105835%, 52.89917%)" offset="0.199219"/><stop stop-opacity="1" stop-color="rgb(93.814087%, 73.87085%, 52.89917%)" offset="0.203125"/><stop stop-opacity="1" stop-color="rgb(93.859863%, 73.635864%, 52.89917%)" offset="0.207031"/><stop stop-opacity="1" stop-color="rgb(93.907166%, 73.400879%, 52.89917%)" offset="0.210937"/><stop stop-opacity="1" stop-color="rgb(93.954468%, 73.165894%, 52.89917%)" offset="0.214844"/><stop stop-opacity="1" stop-color="rgb(94.00177%, 72.932434%, 52.89917%)" offset="0.21875"/><stop stop-opacity="1" stop-color="rgb(94.047546%, 72.697449%, 52.89917%)" offset="0.222656"/><stop stop-opacity="1" stop-color="rgb(94.094849%, 72.462463%, 52.89917%)" offset="0.226562"/><stop stop-opacity="1" stop-color="rgb(94.142151%, 72.227478%, 52.89917%)" offset="0.230469"/><stop stop-opacity="1" stop-color="rgb(94.189453%, 71.992493%, 52.89917%)" offset="0.234375"/><stop stop-opacity="1" stop-color="rgb(94.235229%, 71.757507%, 52.89917%)" offset="0.238281"/><stop stop-opacity="1" stop-color="rgb(94.282532%, 71.524048%, 52.89917%)" offset="0.242188"/><stop stop-opacity="1" stop-color="rgb(94.328308%, 71.289062%, 52.89917%)" offset="0.246094"/><stop stop-opacity="1" stop-color="rgb(94.37561%, 71.054077%, 52.89917%)" offset="0.25"/><stop stop-opacity="1" stop-color="rgb(94.422913%, 70.819092%, 52.89917%)" offset="0.253906"/><stop stop-opacity="1" stop-color="rgb(94.470215%, 70.584106%, 52.89917%)" offset="0.257812"/><stop stop-opacity="1" stop-color="rgb(94.515991%, 70.349121%, 52.89917%)" offset="0.261719"/><stop stop-opacity="1" stop-color="rgb(94.563293%, 70.114136%, 52.89917%)" offset="0.265625"/><stop stop-opacity="1" stop-color="rgb(94.610596%, 69.87915%, 52.89917%)" offset="0.269531"/><stop stop-opacity="1" stop-color="rgb(94.657898%, 69.645691%, 52.89917%)" offset="0.273437"/><stop stop-opacity="1" stop-color="rgb(94.703674%, 69.410706%, 52.89917%)" offset="0.277344"/><stop stop-opacity="1" stop-color="rgb(94.750977%, 69.17572%, 52.89917%)" offset="0.28125"/><stop stop-opacity="1" stop-color="rgb(94.796753%, 68.940735%, 52.89917%)" offset="0.285156"/><stop stop-opacity="1" stop-color="rgb(94.844055%, 68.70575%, 52.89917%)" offset="0.289062"/><stop stop-opacity="1" stop-color="rgb(94.891357%, 68.470764%, 52.89917%)" offset="0.292969"/><stop stop-opacity="1" stop-color="rgb(94.93866%, 68.237305%, 52.89917%)" offset="0.296875"/><stop stop-opacity="1" stop-color="rgb(94.984436%, 68.002319%, 52.89917%)" offset="0.300781"/><stop stop-opacity="1" stop-color="rgb(95.031738%, 67.767334%, 52.89917%)" offset="0.304687"/><stop stop-opacity="1" stop-color="rgb(95.079041%, 67.532349%, 52.89917%)" offset="0.308594"/><stop stop-opacity="1" stop-color="rgb(95.126343%, 67.297363%, 52.89917%)" offset="0.3125"/><stop stop-opacity="1" stop-color="rgb(95.172119%, 67.062378%, 52.89917%)" offset="0.316406"/><stop stop-opacity="1" stop-color="rgb(95.219421%, 66.828918%, 52.89917%)" offset="0.320312"/><stop stop-opacity="1" stop-color="rgb(95.266724%, 66.593933%, 52.89917%)" offset="0.324219"/><stop stop-opacity="1" stop-color="rgb(95.314026%, 66.358948%, 52.89917%)" offset="0.328125"/><stop stop-opacity="1" stop-color="rgb(95.359802%, 66.123962%, 52.89917%)" offset="0.332031"/><stop stop-opacity="1" stop-color="rgb(95.407104%, 65.888977%, 52.89917%)" offset="0.335938"/><stop stop-opacity="1" stop-color="rgb(95.452881%, 65.653992%, 52.89917%)" offset="0.339844"/><stop stop-opacity="1" stop-color="rgb(95.500183%, 65.420532%, 52.89917%)" offset="0.34375"/><stop stop-opacity="1" stop-color="rgb(95.547485%, 65.185547%, 52.89917%)" offset="0.347656"/><stop stop-opacity="1" stop-color="rgb(95.594788%, 64.950562%, 52.89917%)" offset="0.351562"/><stop stop-opacity="1" stop-color="rgb(95.640564%, 64.715576%, 52.89917%)" offset="0.355469"/><stop stop-opacity="1" stop-color="rgb(95.687866%, 64.480591%, 52.89917%)" offset="0.359375"/><stop stop-opacity="1" stop-color="rgb(95.735168%, 64.245605%, 52.89917%)" offset="0.363281"/><stop stop-opacity="1" stop-color="rgb(95.782471%, 64.012146%, 52.89917%)" offset="0.367187"/><stop stop-opacity="1" stop-color="rgb(95.828247%, 63.777161%, 52.89917%)" offset="0.371094"/><stop stop-opacity="1" stop-color="rgb(95.875549%, 63.542175%, 52.89917%)" offset="0.375"/><stop stop-opacity="1" stop-color="rgb(95.921326%, 63.30719%, 52.89917%)" offset="0.378906"/><stop stop-opacity="1" stop-color="rgb(95.968628%, 63.072205%, 52.89917%)" offset="0.382812"/><stop stop-opacity="1" stop-color="rgb(96.01593%, 62.837219%, 52.89917%)" offset="0.386719"/><stop stop-opacity="1" stop-color="rgb(96.063232%, 62.602234%, 52.89917%)" offset="0.390625"/><stop stop-opacity="1" stop-color="rgb(96.109009%, 62.367249%, 52.89917%)" offset="0.394531"/><stop stop-opacity="1" stop-color="rgb(96.156311%, 62.133789%, 52.89917%)" offset="0.398437"/><stop stop-opacity="1" stop-color="rgb(96.203613%, 61.898804%, 52.89917%)" offset="0.402344"/><stop stop-opacity="1" stop-color="rgb(96.250916%, 61.663818%, 52.89917%)" offset="0.40625"/><stop stop-opacity="1" stop-color="rgb(96.296692%, 61.428833%, 52.89917%)" offset="0.410156"/><stop stop-opacity="1" stop-color="rgb(96.343994%, 61.193848%, 52.89917%)" offset="0.414062"/><stop stop-opacity="1" stop-color="rgb(96.389771%, 60.958862%, 52.89917%)" offset="0.417969"/><stop stop-opacity="1" stop-color="rgb(96.437073%, 60.725403%, 52.89917%)" offset="0.421875"/><stop stop-opacity="1" stop-color="rgb(96.484375%, 60.490417%, 52.89917%)" offset="0.425781"/><stop stop-opacity="1" stop-color="rgb(96.531677%, 60.255432%, 52.89917%)" offset="0.429688"/><stop stop-opacity="1" stop-color="rgb(96.577454%, 60.020447%, 52.89917%)" offset="0.433594"/><stop stop-opacity="1" stop-color="rgb(96.624756%, 59.785461%, 52.89917%)" offset="0.4375"/><stop stop-opacity="1" stop-color="rgb(96.672058%, 59.550476%, 52.89917%)" offset="0.441406"/><stop stop-opacity="1" stop-color="rgb(96.71936%, 59.317017%, 52.89917%)" offset="0.445312"/><stop stop-opacity="1" stop-color="rgb(96.765137%, 59.082031%, 52.89917%)" offset="0.449219"/><stop stop-opacity="1" stop-color="rgb(96.812439%, 58.847046%, 52.89917%)" offset="0.453125"/><stop stop-opacity="1" stop-color="rgb(96.858215%, 58.612061%, 52.89917%)" offset="0.457031"/><stop stop-opacity="1" stop-color="rgb(96.905518%, 58.377075%, 52.89917%)" offset="0.460937"/><stop stop-opacity="1" stop-color="rgb(96.95282%, 58.14209%, 52.89917%)" offset="0.464844"/><stop stop-opacity="1" stop-color="rgb(97.000122%, 57.90863%, 52.89917%)" offset="0.46875"/><stop stop-opacity="1" stop-color="rgb(97.045898%, 57.673645%, 52.89917%)" offset="0.472656"/><stop stop-opacity="1" stop-color="rgb(97.093201%, 57.43866%, 52.89917%)" offset="0.476562"/><stop stop-opacity="1" stop-color="rgb(97.140503%, 57.203674%, 52.89917%)" offset="0.480469"/><stop stop-opacity="1" stop-color="rgb(97.187805%, 56.968689%, 52.89917%)" offset="0.484375"/><stop stop-opacity="1" stop-color="rgb(97.233582%, 56.733704%, 52.89917%)" offset="0.488281"/><stop stop-opacity="1" stop-color="rgb(97.280884%, 56.498718%, 52.89917%)" offset="0.492188"/><stop stop-opacity="1" stop-color="rgb(97.32666%, 56.263733%, 52.89917%)" offset="0.496094"/><stop stop-opacity="1" stop-color="rgb(97.373962%, 56.030273%, 52.89917%)" offset="0.5"/><stop stop-opacity="1" stop-color="rgb(97.421265%, 55.795288%, 52.89917%)" offset="0.503906"/><stop stop-opacity="1" stop-color="rgb(97.468567%, 55.560303%, 52.89917%)" offset="0.507812"/><stop stop-opacity="1" stop-color="rgb(97.514343%, 55.325317%, 52.89917%)" offset="0.511719"/><stop stop-opacity="1" stop-color="rgb(97.561646%, 55.090332%, 52.89917%)" offset="0.515625"/><stop stop-opacity="1" stop-color="rgb(97.608948%, 54.855347%, 52.89917%)" offset="0.519531"/><stop stop-opacity="1" stop-color="rgb(97.65625%, 54.621887%, 52.89917%)" offset="0.523437"/><stop stop-opacity="1" stop-color="rgb(97.702026%, 54.386902%, 52.89917%)" offset="0.527344"/><stop stop-opacity="1" stop-color="rgb(97.749329%, 54.151917%, 52.89917%)" offset="0.53125"/><stop stop-opacity="1" stop-color="rgb(97.795105%, 53.916931%, 52.89917%)" offset="0.535156"/><stop stop-opacity="1" stop-color="rgb(97.842407%, 53.681946%, 52.89917%)" offset="0.539062"/><stop stop-opacity="1" stop-color="rgb(97.889709%, 53.44696%, 52.89917%)" offset="0.542969"/><stop stop-opacity="1" stop-color="rgb(97.937012%, 53.213501%, 52.89917%)" offset="0.546875"/><stop stop-opacity="1" stop-color="rgb(97.979736%, 53.118896%, 52.841187%)" offset="0.5625"/><stop stop-opacity="1" stop-color="rgb(98.062134%, 53.210449%, 52.612305%)" offset="0.59375"/><stop stop-opacity="1" stop-color="rgb(98.138428%, 53.58429%, 52.268982%)" offset="0.625"/><stop stop-opacity="1" stop-color="rgb(98.216248%, 53.95813%, 51.925659%)" offset="0.65625"/><stop stop-opacity="1" stop-color="rgb(98.292542%, 54.333496%, 51.580811%)" offset="0.6875"/><stop stop-opacity="1" stop-color="rgb(98.368835%, 54.707336%, 51.237488%)" offset="0.71875"/><stop stop-opacity="1" stop-color="rgb(98.445129%, 55.081177%, 50.894165%)" offset="0.75"/><stop stop-opacity="1" stop-color="rgb(98.521423%, 55.455017%, 50.550842%)" offset="0.78125"/><stop stop-opacity="1" stop-color="rgb(98.597717%, 55.830383%, 50.205994%)" offset="0.8125"/><stop stop-opacity="1" stop-color="rgb(98.674011%, 56.204224%, 49.862671%)" offset="0.84375"/><stop stop-opacity="1" stop-color="rgb(98.750305%, 56.578064%, 49.519348%)" offset="0.875"/><stop stop-opacity="1" stop-color="rgb(98.826599%, 56.951904%, 49.176025%)" offset="0.90625"/><stop stop-opacity="1" stop-color="rgb(98.902893%, 57.327271%, 48.832703%)" offset="0.9375"/><stop stop-opacity="1" stop-color="rgb(98.979187%, 57.701111%, 48.487854%)" offset="0.96875"/><stop stop-opacity="1" stop-color="rgb(99.055481%, 58.074951%, 48.144531%)" offset="1"/></linearGradient><clipPath id="75041386d7"><path d="M 1151.765625 1120.296875 L 1556.015625 1120.296875 L 1556.015625 1524.546875 L 1151.765625 1524.546875 Z M 1151.765625 1120.296875 " clip-rule="nonzero"/></clipPath><clipPath id="510ddeaec3"><path d="M 1616.0625 1620.015625 L 2020.3125 1620.015625 L 2020.3125 2024.261719 L 1616.0625 2024.261719 Z M 1616.0625 1620.015625 " clip-rule="nonzero"/></clipPath><clipPath id="cbf29e2180"><path d="M 687.46875 1620.015625 L 1091.71875 1620.015625 L 1091.71875 2024.261719 L 687.46875 2024.261719 Z M 687.46875 1620.015625 " clip-rule="nonzero"/></clipPath><clipPath id="17a19fbd08"><path d="M 2075.675781 1120.296875 L 2479.925781 1120.296875 L 2479.925781 1524.546875 L 2075.675781 1524.546875 Z M 2075.675781 1120.296875 " clip-rule="nonzero"/></clipPath><clipPath id="e91cf9b36a"><path d="M 227.851562 1120.296875 L 632.101562 1120.296875 L 632.101562 1524.546875 L 227.851562 1524.546875 Z M 227.851562 1120.296875 " clip-rule="nonzero"/></clipPath><clipPath id="90506c8390"><path d="M 326.019531 1239.226562 L 533.769531 1239.226562 L 533.769531 1404.976562 L 326.019531 1404.976562 Z M 326.019531 1239.226562 " clip-rule="nonzero"/></clipPath><clipPath id="d9e6d0c7aa"><path d="M 752.480469 1824 L 956 1824 L 956 1926 L 752.480469 1926 Z M 752.480469 1824 " clip-rule="nonzero"/></clipPath><clipPath id="35a9290e4d"><path d="M 823 1717.191406 L 1026.230469 1717.191406 L 1026.230469 1819 L 823 1819 Z M 823 1717.191406 " clip-rule="nonzero"/></clipPath><clipPath id="356dd63320"><path d="M 1241.546875 1232.519531 L 1465.796875 1232.519531 L 1465.796875 1411.769531 L 1241.546875 1411.769531 Z M 1241.546875 1232.519531 " clip-rule="nonzero"/></clipPath><clipPath id="347cb7ee69"><path d="M 1738.507812 1720.972656 L 1897.507812 1720.972656 L 1897.507812 1746 L 1738.507812 1746 Z M 1738.507812 1720.972656 " clip-rule="nonzero"/></clipPath><clipPath id="2d6a232123"><path d="M 1738.507812 1898 L 1897.507812 1898 L 1897.507812 1922.722656 L 1738.507812 1922.722656 Z M 1738.507812 1898 " clip-rule="nonzero"/></clipPath><clipPath id="de0a14020f"><path d="M 2169 1232 L 2386 1232 L 2386 1427.734375 L 2169 1427.734375 Z M 2169 1232 " clip-rule="nonzero"/></clipPath></defs><rect x="-270" width="3240" fill="#ffffff" y="-270" height="3239.999997" fill-opacity="1"/><rect x="-270" width="3240" fill="#ffffff" y="-270" height="3239.999997" fill-opacity="1"/><rect x="-270" width="3240" fill="#fff4ed" y="-270" height="3239.999997" fill-opacity="1"/><g clip-path="url(#fe6dfefd86)"><g clip-path="url(#c5f95855a2)"><path fill="url(#b4a21e9ce5)" d="M 0 1285.722656 L 0 1865.199219 L 2700 1865.199219 L 2700 1285.722656 Z M 0 1285.722656 " fill-rule="nonzero"/></g></g><g clip-path="url(#75041386d7)"><path fill="#403f3f" d="M 1556.015625 1322.421875 C 1556.015625 1325.730469 1555.933594 1329.035156 1555.769531 1332.339844 C 1555.609375 1335.644531 1555.363281 1338.941406 1555.039062 1342.234375 C 1554.714844 1345.523438 1554.3125 1348.808594 1553.828125 1352.078125 C 1553.339844 1355.351562 1552.777344 1358.609375 1552.128906 1361.855469 C 1551.484375 1365.097656 1550.761719 1368.324219 1549.957031 1371.535156 C 1549.152344 1374.742188 1548.269531 1377.929688 1547.3125 1381.09375 C 1546.351562 1384.261719 1545.3125 1387.402344 1544.199219 1390.515625 C 1543.085938 1393.628906 1541.894531 1396.714844 1540.628906 1399.769531 C 1539.363281 1402.828125 1538.023438 1405.851562 1536.609375 1408.839844 C 1535.195312 1411.832031 1533.707031 1414.785156 1532.148438 1417.703125 C 1530.589844 1420.621094 1528.957031 1423.496094 1527.257812 1426.335938 C 1525.558594 1429.171875 1523.789062 1431.964844 1521.949219 1434.714844 C 1520.113281 1437.464844 1518.207031 1440.171875 1516.238281 1442.828125 C 1514.265625 1445.484375 1512.234375 1448.089844 1510.132812 1450.648438 C 1508.035156 1453.207031 1505.875 1455.710938 1503.652344 1458.160156 C 1501.433594 1460.609375 1499.152344 1463.007812 1496.8125 1465.34375 C 1494.472656 1467.683594 1492.078125 1469.964844 1489.628906 1472.1875 C 1487.175781 1474.40625 1484.671875 1476.566406 1482.117188 1478.667969 C 1479.558594 1480.765625 1476.953125 1482.800781 1474.292969 1484.769531 C 1471.636719 1486.738281 1468.933594 1488.644531 1466.183594 1490.480469 C 1463.433594 1492.320312 1460.640625 1494.089844 1457.800781 1495.789062 C 1454.964844 1497.492188 1452.085938 1499.121094 1449.171875 1500.679688 C 1446.253906 1502.238281 1443.300781 1503.726562 1440.308594 1505.140625 C 1437.320312 1506.554688 1434.296875 1507.894531 1431.238281 1509.160156 C 1428.183594 1510.425781 1425.097656 1511.617188 1421.984375 1512.730469 C 1418.867188 1513.84375 1415.726562 1514.882812 1412.5625 1515.84375 C 1409.398438 1516.804688 1406.210938 1517.683594 1403 1518.488281 C 1399.792969 1519.292969 1396.566406 1520.015625 1393.320312 1520.664062 C 1390.078125 1521.308594 1386.820312 1521.875 1383.546875 1522.359375 C 1380.273438 1522.84375 1376.992188 1523.25 1373.699219 1523.574219 C 1370.410156 1523.898438 1367.109375 1524.140625 1363.808594 1524.304688 C 1360.503906 1524.464844 1357.195312 1524.546875 1353.890625 1524.546875 C 1350.582031 1524.546875 1347.273438 1524.464844 1343.972656 1524.304688 C 1340.667969 1524.140625 1337.371094 1523.898438 1334.078125 1523.574219 C 1330.785156 1523.25 1327.503906 1522.84375 1324.230469 1522.359375 C 1320.960938 1521.875 1317.699219 1521.308594 1314.457031 1520.664062 C 1311.210938 1520.015625 1307.984375 1519.292969 1304.777344 1518.488281 C 1301.566406 1517.683594 1298.382812 1516.804688 1295.214844 1515.84375 C 1292.050781 1514.882812 1288.910156 1513.84375 1285.796875 1512.730469 C 1282.679688 1511.617188 1279.59375 1510.425781 1276.539062 1509.160156 C 1273.484375 1507.894531 1270.460938 1506.554688 1267.46875 1505.140625 C 1264.480469 1503.726562 1261.527344 1502.238281 1258.609375 1500.679688 C 1255.691406 1499.121094 1252.8125 1497.492188 1249.976562 1495.789062 C 1247.140625 1494.089844 1244.34375 1492.320312 1241.59375 1490.480469 C 1238.84375 1488.644531 1236.140625 1486.738281 1233.484375 1484.769531 C 1230.828125 1482.800781 1228.21875 1480.765625 1225.664062 1478.667969 C 1223.105469 1476.566406 1220.601562 1474.40625 1218.148438 1472.1875 C 1215.699219 1469.964844 1213.304688 1467.683594 1210.964844 1465.34375 C 1208.625 1463.007812 1206.347656 1460.609375 1204.125 1458.160156 C 1201.902344 1455.710938 1199.742188 1453.207031 1197.644531 1450.648438 C 1195.546875 1448.089844 1193.511719 1445.484375 1191.539062 1442.828125 C 1189.570312 1440.171875 1187.667969 1437.464844 1185.828125 1434.714844 C 1183.992188 1431.964844 1182.222656 1429.171875 1180.519531 1426.335938 C 1178.820312 1423.496094 1177.191406 1420.621094 1175.632812 1417.703125 C 1174.070312 1414.785156 1172.585938 1411.832031 1171.171875 1408.839844 C 1169.757812 1405.851562 1168.414062 1402.828125 1167.148438 1399.769531 C 1165.882812 1396.714844 1164.695312 1393.628906 1163.578125 1390.515625 C 1162.464844 1387.402344 1161.429688 1384.261719 1160.46875 1381.09375 C 1159.507812 1377.929688 1158.625 1374.742188 1157.820312 1371.535156 C 1157.019531 1368.324219 1156.292969 1365.097656 1155.648438 1361.855469 C 1155.003906 1358.609375 1154.4375 1355.351562 1153.953125 1352.078125 C 1153.464844 1348.808594 1153.0625 1345.523438 1152.738281 1342.234375 C 1152.414062 1338.941406 1152.171875 1335.644531 1152.007812 1332.339844 C 1151.84375 1329.035156 1151.765625 1325.730469 1151.765625 1322.421875 C 1151.765625 1319.113281 1151.84375 1315.808594 1152.007812 1312.503906 C 1152.171875 1309.199219 1152.414062 1305.902344 1152.738281 1302.609375 C 1153.0625 1299.316406 1153.464844 1296.035156 1153.953125 1292.761719 C 1154.4375 1289.492188 1155.003906 1286.234375 1155.648438 1282.988281 C 1156.292969 1279.746094 1157.019531 1276.519531 1157.820312 1273.308594 C 1158.625 1270.101562 1159.507812 1266.914062 1160.46875 1263.746094 C 1161.429688 1260.582031 1162.464844 1257.441406 1163.578125 1254.328125 C 1164.695312 1251.214844 1165.882812 1248.128906 1167.148438 1245.070312 C 1168.414062 1242.015625 1169.757812 1238.992188 1171.171875 1236 C 1172.585938 1233.011719 1174.070312 1230.058594 1175.632812 1227.140625 C 1177.191406 1224.222656 1178.820312 1221.34375 1180.519531 1218.507812 C 1182.222656 1215.671875 1183.992188 1212.878906 1185.828125 1210.125 C 1187.667969 1207.375 1189.570312 1204.671875 1191.539062 1202.015625 C 1193.511719 1199.359375 1195.546875 1196.75 1197.644531 1194.195312 C 1199.742188 1191.636719 1201.902344 1189.132812 1204.125 1186.683594 C 1206.347656 1184.230469 1208.625 1181.835938 1210.964844 1179.496094 C 1213.304688 1177.160156 1215.699219 1174.878906 1218.148438 1172.65625 C 1220.601562 1170.433594 1223.105469 1168.273438 1225.664062 1166.175781 C 1228.21875 1164.078125 1230.828125 1162.042969 1233.484375 1160.074219 C 1236.140625 1158.101562 1238.84375 1156.199219 1241.59375 1154.359375 C 1244.34375 1152.523438 1247.140625 1150.753906 1249.976562 1149.054688 C 1252.8125 1147.351562 1255.691406 1145.722656 1258.609375 1144.164062 C 1261.527344 1142.605469 1264.480469 1141.117188 1267.46875 1139.703125 C 1270.460938 1138.289062 1273.484375 1136.949219 1276.539062 1135.683594 C 1279.59375 1134.417969 1282.679688 1133.226562 1285.796875 1132.113281 C 1288.910156 1130.996094 1292.050781 1129.960938 1295.214844 1129 C 1298.382812 1128.039062 1301.566406 1127.15625 1304.777344 1126.355469 C 1307.984375 1125.550781 1311.210938 1124.824219 1314.457031 1124.179688 C 1317.699219 1123.535156 1320.960938 1122.96875 1324.230469 1122.484375 C 1327.503906 1122 1330.785156 1121.59375 1334.078125 1121.269531 C 1337.371094 1120.945312 1340.667969 1120.703125 1343.972656 1120.539062 C 1347.273438 1120.378906 1350.582031 1120.296875 1353.890625 1120.296875 C 1357.195312 1120.296875 1360.503906 1120.378906 1363.808594 1120.539062 C 1367.109375 1120.703125 1370.410156 1120.945312 1373.699219 1121.269531 C 1376.992188 1121.59375 1380.273438 1122 1383.546875 1122.484375 C 1386.820312 1122.96875 1390.078125 1123.535156 1393.320312 1124.179688 C 1396.566406 1124.824219 1399.792969 1125.550781 1403 1126.355469 C 1406.210938 1127.15625 1409.398438 1128.039062 1412.5625 1129 C 1415.726562 1129.960938 1418.867188 1130.996094 1421.984375 1132.113281 C 1425.097656 1133.226562 1428.183594 1134.417969 1431.238281 1135.683594 C 1434.296875 1136.949219 1437.320312 1138.289062 1440.308594 1139.703125 C 1443.300781 1141.117188 1446.253906 1142.605469 1449.171875 1144.164062 C 1452.085938 1145.722656 1454.964844 1147.351562 1457.800781 1149.054688 C 1460.640625 1150.753906 1463.433594 1152.523438 1466.183594 1154.359375 C 1468.933594 1156.199219 1471.636719 1158.101562 1474.292969 1160.074219 C 1476.953125 1162.042969 1479.558594 1164.078125 1482.117188 1166.175781 C 1484.671875 1168.273438 1487.175781 1170.433594 1489.628906 1172.65625 C 1492.078125 1174.878906 1494.472656 1177.160156 1496.8125 1179.496094 C 1499.152344 1181.835938 1501.433594 1184.230469 1503.652344 1186.683594 C 1505.875 1189.132812 1508.035156 1191.636719 1510.132812 1194.195312 C 1512.234375 1196.75 1514.265625 1199.359375 1516.238281 1202.015625 C 1518.207031 1204.671875 1520.113281 1207.375 1521.949219 1210.125 C 1523.789062 1212.878906 1525.558594 1215.671875 1527.257812 1218.507812 C 1528.957031 1221.34375 1530.589844 1224.222656 1532.148438 1227.140625 C 1533.707031 1230.058594 1535.195312 1233.011719 1536.609375 1236 C 1538.023438 1238.992188 1539.363281 1242.015625 1540.628906 1245.070312 C 1541.894531 1248.128906 1543.085938 1251.214844 1544.199219 1254.328125 C 1545.3125 1257.441406 1546.351562 1260.582031 1547.3125 1263.746094 C 1548.269531 1266.914062 1549.152344 1270.101562 1549.957031 1273.308594 C 1550.761719 1276.519531 1551.484375 1279.746094 1552.128906 1282.988281 C 1552.777344 1286.234375 1553.339844 1289.492188 1553.828125 1292.761719 C 1554.3125 1296.035156 1554.714844 1299.316406 1555.039062 1302.609375 C 1555.363281 1305.902344 1555.609375 1309.199219 1555.769531 1312.503906 C 1555.933594 1315.808594 1556.015625 1319.113281 1556.015625 1322.421875 Z M 1556.015625 1322.421875 " fill-opacity="1" fill-rule="nonzero"/></g><g clip-path="url(#510ddeaec3)"><path fill="#403f3f" d="M 2020.3125 1822.140625 C 2020.3125 1825.445312 2020.230469 1828.753906 2020.066406 1832.054688 C 2019.90625 1835.359375 2019.660156 1838.660156 2019.335938 1841.949219 C 2019.011719 1845.242188 2018.609375 1848.523438 2018.125 1851.796875 C 2017.636719 1855.070312 2017.074219 1858.328125 2016.425781 1861.570312 C 2015.78125 1864.816406 2015.058594 1868.042969 2014.253906 1871.25 C 2013.449219 1874.460938 2012.566406 1877.648438 2011.609375 1880.8125 C 2010.648438 1883.976562 2009.609375 1887.117188 2008.496094 1890.234375 C 2007.382812 1893.347656 2006.191406 1896.433594 2004.925781 1899.488281 C 2003.660156 1902.542969 2002.320312 1905.566406 2000.90625 1908.558594 C 1999.492188 1911.546875 1998.003906 1914.503906 1996.445312 1917.417969 C 1994.886719 1920.335938 1993.253906 1923.214844 1991.554688 1926.050781 C 1989.855469 1928.890625 1988.085938 1931.683594 1986.246094 1934.433594 C 1984.410156 1937.183594 1982.503906 1939.886719 1980.535156 1942.542969 C 1978.5625 1945.203125 1976.527344 1947.808594 1974.429688 1950.367188 C 1972.332031 1952.921875 1970.171875 1955.425781 1967.949219 1957.878906 C 1965.730469 1960.328125 1963.449219 1962.722656 1961.109375 1965.0625 C 1958.769531 1967.402344 1956.375 1969.683594 1953.925781 1971.902344 C 1951.472656 1974.125 1948.96875 1976.285156 1946.414062 1978.382812 C 1943.855469 1980.480469 1941.25 1982.515625 1938.589844 1984.488281 C 1935.933594 1986.457031 1933.230469 1988.363281 1930.480469 1990.199219 C 1927.730469 1992.039062 1924.9375 1993.804688 1922.097656 1995.507812 C 1919.261719 1997.207031 1916.382812 1998.835938 1913.46875 2000.398438 C 1910.550781 2001.957031 1907.597656 2003.441406 1904.605469 2004.859375 C 1901.613281 2006.273438 1898.59375 2007.613281 1895.535156 2008.878906 C 1892.480469 2010.144531 1889.394531 2011.332031 1886.28125 2012.449219 C 1883.164062 2013.5625 1880.023438 2014.601562 1876.859375 2015.558594 C 1873.695312 2016.519531 1870.507812 2017.402344 1867.296875 2018.207031 C 1864.089844 2019.011719 1860.863281 2019.734375 1857.617188 2020.378906 C 1854.375 2021.023438 1851.117188 2021.589844 1847.84375 2022.074219 C 1844.570312 2022.5625 1841.289062 2022.964844 1837.996094 2023.289062 C 1834.707031 2023.613281 1831.40625 2023.859375 1828.105469 2024.019531 C 1824.800781 2024.183594 1821.492188 2024.265625 1818.1875 2024.265625 C 1814.878906 2024.265625 1811.570312 2024.183594 1808.269531 2024.019531 C 1804.964844 2023.859375 1801.667969 2023.613281 1798.375 2023.289062 C 1795.082031 2022.964844 1791.800781 2022.5625 1788.527344 2022.074219 C 1785.257812 2021.589844 1781.996094 2021.023438 1778.753906 2020.378906 C 1775.507812 2019.734375 1772.28125 2019.011719 1769.074219 2018.207031 C 1765.863281 2017.402344 1762.675781 2016.519531 1759.511719 2015.558594 C 1756.347656 2014.601562 1753.207031 2013.5625 1750.09375 2012.449219 C 1746.976562 2011.332031 1743.890625 2010.144531 1740.835938 2008.878906 C 1737.78125 2007.613281 1734.757812 2006.273438 1731.765625 2004.859375 C 1728.777344 2003.441406 1725.820312 2001.957031 1722.90625 2000.398438 C 1719.988281 1998.835938 1717.109375 1997.207031 1714.273438 1995.507812 C 1711.4375 1993.804688 1708.640625 1992.039062 1705.890625 1990.199219 C 1703.140625 1988.363281 1700.4375 1986.457031 1697.78125 1984.488281 C 1695.125 1982.515625 1692.515625 1980.480469 1689.960938 1978.382812 C 1687.402344 1976.285156 1684.898438 1974.125 1682.445312 1971.902344 C 1679.996094 1969.683594 1677.601562 1967.402344 1675.261719 1965.0625 C 1672.921875 1962.722656 1670.644531 1960.328125 1668.421875 1957.878906 C 1666.199219 1955.425781 1664.039062 1952.921875 1661.941406 1950.367188 C 1659.84375 1947.808594 1657.808594 1945.203125 1655.835938 1942.542969 C 1653.867188 1939.886719 1651.964844 1937.183594 1650.125 1934.433594 C 1648.289062 1931.683594 1646.519531 1928.890625 1644.816406 1926.050781 C 1643.117188 1923.214844 1641.488281 1920.335938 1639.925781 1917.417969 C 1638.367188 1914.503906 1636.882812 1911.546875 1635.46875 1908.558594 C 1634.054688 1905.566406 1632.710938 1902.542969 1631.445312 1899.488281 C 1630.179688 1896.433594 1628.992188 1893.347656 1627.875 1890.234375 C 1626.761719 1887.117188 1625.726562 1883.976562 1624.765625 1880.8125 C 1623.804688 1877.648438 1622.921875 1874.460938 1622.117188 1871.25 C 1621.316406 1868.042969 1620.589844 1864.816406 1619.945312 1861.570312 C 1619.300781 1858.328125 1618.734375 1855.070312 1618.25 1851.796875 C 1617.761719 1848.523438 1617.359375 1845.242188 1617.035156 1841.949219 C 1616.710938 1838.660156 1616.464844 1835.359375 1616.304688 1832.054688 C 1616.140625 1828.753906 1616.0625 1825.445312 1616.0625 1822.140625 C 1616.0625 1818.832031 1616.140625 1815.523438 1616.304688 1812.222656 C 1616.464844 1808.917969 1616.710938 1805.617188 1617.035156 1802.328125 C 1617.359375 1799.035156 1617.761719 1795.753906 1618.25 1792.480469 C 1618.734375 1789.207031 1619.300781 1785.949219 1619.945312 1782.707031 C 1620.589844 1779.460938 1621.316406 1776.234375 1622.117188 1773.027344 C 1622.921875 1769.816406 1623.804688 1766.628906 1624.765625 1763.464844 C 1625.726562 1760.300781 1626.761719 1757.160156 1627.875 1754.042969 C 1628.992188 1750.929688 1630.179688 1747.84375 1631.445312 1744.789062 C 1632.710938 1741.734375 1634.054688 1738.710938 1635.46875 1735.71875 C 1636.882812 1732.730469 1638.367188 1729.773438 1639.925781 1726.859375 C 1641.488281 1723.941406 1643.117188 1721.0625 1644.816406 1718.226562 C 1646.519531 1715.386719 1648.289062 1712.59375 1650.125 1709.84375 C 1651.964844 1707.09375 1653.867188 1704.390625 1655.835938 1701.734375 C 1657.808594 1699.074219 1659.84375 1696.46875 1661.941406 1693.910156 C 1664.039062 1691.355469 1666.199219 1688.851562 1668.421875 1686.398438 C 1670.644531 1683.949219 1672.921875 1681.554688 1675.261719 1679.214844 C 1677.601562 1676.875 1679.996094 1674.59375 1682.445312 1672.375 C 1684.898438 1670.152344 1687.402344 1667.992188 1689.960938 1665.894531 C 1692.515625 1663.796875 1695.125 1661.761719 1697.78125 1659.789062 C 1700.4375 1657.820312 1703.140625 1655.914062 1705.890625 1654.078125 C 1708.640625 1652.238281 1711.4375 1650.472656 1714.273438 1648.769531 C 1717.109375 1647.070312 1719.988281 1645.441406 1722.90625 1643.878906 C 1725.820312 1642.320312 1728.777344 1640.835938 1731.765625 1639.417969 C 1734.757812 1638.003906 1737.78125 1636.664062 1740.835938 1635.398438 C 1743.890625 1634.132812 1746.976562 1632.945312 1750.09375 1631.828125 C 1753.207031 1630.714844 1756.347656 1629.675781 1759.511719 1628.71875 C 1762.675781 1627.757812 1765.863281 1626.875 1769.074219 1626.070312 C 1772.28125 1625.265625 1775.507812 1624.542969 1778.753906 1623.898438 C 1781.996094 1623.253906 1785.257812 1622.6875 1788.527344 1622.203125 C 1791.800781 1621.714844 1795.082031 1621.3125 1798.375 1620.988281 C 1801.667969 1620.664062 1804.964844 1620.417969 1808.269531 1620.257812 C 1811.570312 1620.09375 1814.878906 1620.015625 1818.1875 1620.015625 C 1821.492188 1620.015625 1824.800781 1620.09375 1828.105469 1620.257812 C 1831.40625 1620.417969 1834.707031 1620.664062 1837.996094 1620.988281 C 1841.289062 1621.3125 1844.570312 1621.714844 1847.84375 1622.203125 C 1851.117188 1622.6875 1854.375 1623.253906 1857.617188 1623.898438 C 1860.863281 1624.542969 1864.089844 1625.265625 1867.296875 1626.070312 C 1870.507812 1626.875 1873.695312 1627.757812 1876.859375 1628.71875 C 1880.023438 1629.675781 1883.164062 1630.714844 1886.28125 1631.828125 C 1889.394531 1632.945312 1892.480469 1634.132812 1895.535156 1635.398438 C 1898.59375 1636.664062 1901.613281 1638.003906 1904.605469 1639.417969 C 1907.597656 1640.835938 1910.550781 1642.320312 1913.46875 1643.878906 C 1916.382812 1645.441406 1919.261719 1647.070312 1922.097656 1648.769531 C 1924.9375 1650.472656 1927.730469 1652.238281 1930.480469 1654.078125 C 1933.230469 1655.914062 1935.933594 1657.820312 1938.589844 1659.789062 C 1941.25 1661.761719 1943.855469 1663.796875 1946.414062 1665.894531 C 1948.96875 1667.992188 1951.472656 1670.152344 1953.925781 1672.375 C 1956.375 1674.59375 1958.769531 1676.875 1961.109375 1679.214844 C 1963.449219 1681.554688 1965.730469 1683.949219 1967.949219 1686.398438 C 1970.171875 1688.851562 1972.332031 1691.355469 1974.429688 1693.910156 C 1976.527344 1696.46875 1978.5625 1699.074219 1980.535156 1701.734375 C 1982.503906 1704.390625 1984.410156 1707.09375 1986.246094 1709.84375 C 1988.085938 1712.59375 1989.855469 1715.386719 1991.554688 1718.226562 C 1993.253906 1721.0625 1994.886719 1723.941406 1996.445312 1726.859375 C 1998.003906 1729.773438 1999.492188 1732.730469 2000.90625 1735.71875 C 2002.320312 1738.710938 2003.660156 1741.734375 2004.925781 1744.789062 C 2006.191406 1747.84375 2007.382812 1750.929688 2008.496094 1754.042969 C 2009.609375 1757.160156 2010.648438 1760.300781 2011.609375 1763.464844 C 2012.566406 1766.628906 2013.449219 1769.816406 2014.253906 1773.027344 C 2015.058594 1776.234375 2015.78125 1779.460938 2016.425781 1782.707031 C 2017.074219 1785.949219 2017.636719 1789.207031 2018.125 1792.480469 C 2018.609375 1795.753906 2019.011719 1799.035156 2019.335938 1802.328125 C 2019.660156 1805.617188 2019.90625 1808.917969 2020.066406 1812.222656 C 2020.230469 1815.523438 2020.3125 1818.832031 2020.3125 1822.140625 Z M 2020.3125 1822.140625 " fill-opacity="1" fill-rule="nonzero"/></g><g clip-path="url(#cbf29e2180)"><path fill="#403f3f" d="M 1091.71875 1822.140625 C 1091.71875 1825.445312 1091.636719 1828.753906 1091.472656 1832.054688 C 1091.3125 1835.359375 1091.070312 1838.660156 1090.746094 1841.949219 C 1090.421875 1845.242188 1090.015625 1848.523438 1089.53125 1851.796875 C 1089.042969 1855.070312 1088.480469 1858.328125 1087.832031 1861.570312 C 1087.1875 1864.816406 1086.464844 1868.042969 1085.660156 1871.25 C 1084.855469 1874.460938 1083.972656 1877.648438 1083.015625 1880.8125 C 1082.054688 1883.976562 1081.015625 1887.117188 1079.902344 1890.234375 C 1078.789062 1893.347656 1077.597656 1896.433594 1076.332031 1899.488281 C 1075.066406 1902.542969 1073.726562 1905.566406 1072.3125 1908.558594 C 1070.898438 1911.546875 1069.410156 1914.503906 1067.851562 1917.417969 C 1066.292969 1920.335938 1064.660156 1923.214844 1062.960938 1926.050781 C 1061.261719 1928.890625 1059.492188 1931.683594 1057.652344 1934.433594 C 1055.816406 1937.183594 1053.910156 1939.886719 1051.941406 1942.542969 C 1049.96875 1945.203125 1047.9375 1947.808594 1045.835938 1950.367188 C 1043.738281 1952.921875 1041.578125 1955.425781 1039.355469 1957.878906 C 1037.136719 1960.328125 1034.855469 1962.722656 1032.515625 1965.0625 C 1030.175781 1967.402344 1027.78125 1969.683594 1025.332031 1971.902344 C 1022.878906 1974.125 1020.375 1976.285156 1017.820312 1978.382812 C 1015.261719 1980.480469 1012.65625 1982.515625 1010 1984.488281 C 1007.339844 1986.457031 1004.636719 1988.363281 1001.886719 1990.199219 C 999.136719 1992.039062 996.34375 1993.804688 993.503906 1995.507812 C 990.667969 1997.207031 987.789062 1998.835938 984.875 2000.398438 C 981.957031 2001.957031 979.003906 2003.441406 976.011719 2004.859375 C 973.023438 2006.273438 970 2007.613281 966.941406 2008.878906 C 963.886719 2010.144531 960.800781 2011.332031 957.6875 2012.449219 C 954.570312 2013.5625 951.433594 2014.601562 948.265625 2015.558594 C 945.101562 2016.519531 941.914062 2017.402344 938.703125 2018.207031 C 935.496094 2019.011719 932.269531 2019.734375 929.023438 2020.378906 C 925.78125 2021.023438 922.523438 2021.589844 919.25 2022.074219 C 915.976562 2022.5625 912.695312 2022.964844 909.40625 2023.289062 C 906.113281 2023.613281 902.8125 2023.859375 899.511719 2024.019531 C 896.207031 2024.183594 892.902344 2024.265625 889.59375 2024.265625 C 886.285156 2024.265625 882.980469 2024.183594 879.675781 2024.019531 C 876.371094 2023.859375 873.074219 2023.613281 869.78125 2023.289062 C 866.488281 2022.964844 863.207031 2022.5625 859.933594 2022.074219 C 856.664062 2021.589844 853.40625 2021.023438 850.160156 2020.378906 C 846.914062 2019.734375 843.6875 2019.011719 840.480469 2018.207031 C 837.269531 2017.402344 834.085938 2016.519531 830.917969 2015.558594 C 827.753906 2014.601562 824.613281 2013.5625 821.5 2012.449219 C 818.382812 2011.332031 815.296875 2010.144531 812.242188 2008.878906 C 809.1875 2007.613281 806.164062 2006.273438 803.171875 2004.859375 C 800.183594 2003.441406 797.230469 2001.957031 794.3125 2000.398438 C 791.394531 1998.835938 788.515625 1997.207031 785.679688 1995.507812 C 782.84375 1993.804688 780.046875 1992.039062 777.296875 1990.199219 C 774.546875 1988.363281 771.84375 1986.457031 769.1875 1984.488281 C 766.53125 1982.515625 763.921875 1980.480469 761.367188 1978.382812 C 758.808594 1976.285156 756.304688 1974.125 753.855469 1971.902344 C 751.402344 1969.683594 749.007812 1967.402344 746.667969 1965.0625 C 744.328125 1962.722656 742.050781 1960.328125 739.828125 1957.878906 C 737.605469 1955.425781 735.445312 1952.921875 733.347656 1950.367188 C 731.25 1947.808594 729.214844 1945.203125 727.246094 1942.542969 C 725.273438 1939.886719 723.371094 1937.183594 721.53125 1934.433594 C 719.695312 1931.683594 717.925781 1928.890625 716.222656 1926.050781 C 714.523438 1923.214844 712.894531 1920.335938 711.335938 1917.417969 C 709.773438 1914.503906 708.289062 1911.546875 706.875 1908.558594 C 705.460938 1905.566406 704.121094 1902.542969 702.851562 1899.488281 C 701.585938 1896.433594 700.398438 1893.347656 699.28125 1890.234375 C 698.167969 1887.117188 697.132812 1883.976562 696.171875 1880.8125 C 695.210938 1877.648438 694.328125 1874.460938 693.523438 1871.25 C 692.722656 1868.042969 691.996094 1864.816406 691.351562 1861.570312 C 690.707031 1858.328125 690.140625 1855.070312 689.65625 1851.796875 C 689.171875 1848.523438 688.765625 1845.242188 688.441406 1841.949219 C 688.117188 1838.660156 687.875 1835.359375 687.710938 1832.054688 C 687.546875 1828.753906 687.46875 1825.445312 687.46875 1822.140625 C 687.46875 1818.832031 687.546875 1815.523438 687.710938 1812.222656 C 687.875 1808.917969 688.117188 1805.617188 688.441406 1802.328125 C 688.765625 1799.035156 689.171875 1795.753906 689.65625 1792.480469 C 690.140625 1789.207031 690.707031 1785.949219 691.351562 1782.707031 C 691.996094 1779.460938 692.722656 1776.234375 693.523438 1773.027344 C 694.328125 1769.816406 695.210938 1766.628906 696.171875 1763.464844 C 697.132812 1760.300781 698.167969 1757.160156 699.28125 1754.042969 C 700.398438 1750.929688 701.585938 1747.84375 702.851562 1744.789062 C 704.121094 1741.734375 705.460938 1738.710938 706.875 1735.71875 C 708.289062 1732.730469 709.773438 1729.773438 711.335938 1726.859375 C 712.894531 1723.941406 714.523438 1721.0625 716.222656 1718.226562 C 717.925781 1715.386719 719.695312 1712.59375 721.53125 1709.84375 C 723.371094 1707.09375 725.273438 1704.390625 727.246094 1701.734375 C 729.214844 1699.074219 731.25 1696.46875 733.347656 1693.910156 C 735.445312 1691.355469 737.605469 1688.851562 739.828125 1686.398438 C 742.050781 1683.949219 744.328125 1681.554688 746.667969 1679.214844 C 749.007812 1676.875 751.402344 1674.59375 753.855469 1672.375 C 756.304688 1670.152344 758.808594 1667.992188 761.367188 1665.894531 C 763.921875 1663.796875 766.53125 1661.761719 769.1875 1659.789062 C 771.84375 1657.820312 774.546875 1655.914062 777.296875 1654.078125 C 780.046875 1652.238281 782.84375 1650.472656 785.679688 1648.769531 C 788.515625 1647.070312 791.394531 1645.441406 794.3125 1643.878906 C 797.230469 1642.320312 800.183594 1640.835938 803.171875 1639.417969 C 806.164062 1638.003906 809.1875 1636.664062 812.242188 1635.398438 C 815.300781 1634.132812 818.382812 1632.945312 821.5 1631.828125 C 824.613281 1630.714844 827.753906 1629.675781 830.917969 1628.71875 C 834.085938 1627.757812 837.269531 1626.875 840.480469 1626.070312 C 843.6875 1625.265625 846.914062 1624.542969 850.160156 1623.898438 C 853.40625 1623.253906 856.664062 1622.6875 859.933594 1622.203125 C 863.207031 1621.714844 866.488281 1621.3125 869.78125 1620.988281 C 873.074219 1620.664062 876.371094 1620.417969 879.675781 1620.257812 C 882.980469 1620.09375 886.285156 1620.015625 889.59375 1620.015625 C 892.902344 1620.015625 896.207031 1620.09375 899.511719 1620.257812 C 902.8125 1620.417969 906.113281 1620.664062 909.40625 1620.988281 C 912.695312 1621.3125 915.976562 1621.714844 919.25 1622.203125 C 922.523438 1622.6875 925.78125 1623.253906 929.023438 1623.898438 C 932.269531 1624.542969 935.496094 1625.265625 938.703125 1626.070312 C 941.914062 1626.875 945.101562 1627.757812 948.265625 1628.71875 C 951.433594 1629.675781 954.570312 1630.714844 957.6875 1631.828125 C 960.800781 1632.945312 963.886719 1634.132812 966.941406 1635.398438 C 970 1636.664062 973.023438 1638.003906 976.011719 1639.417969 C 979.003906 1640.835938 981.957031 1642.320312 984.875 1643.878906 C 987.789062 1645.441406 990.667969 1647.070312 993.503906 1648.769531 C 996.34375 1650.472656 999.136719 1652.238281 1001.886719 1654.078125 C 1004.636719 1655.914062 1007.339844 1657.820312 1010 1659.789062 C 1012.65625 1661.761719 1015.261719 1663.796875 1017.820312 1665.894531 C 1020.375 1667.992188 1022.878906 1670.152344 1025.332031 1672.375 C 1027.78125 1674.59375 1030.175781 1676.875 1032.515625 1679.214844 C 1034.855469 1681.554688 1037.136719 1683.949219 1039.355469 1686.398438 C 1041.578125 1688.851562 1043.738281 1691.355469 1045.835938 1693.910156 C 1047.9375 1696.46875 1049.96875 1699.074219 1051.941406 1701.734375 C 1053.910156 1704.390625 1055.816406 1707.09375 1057.652344 1709.84375 C 1059.492188 1712.59375 1061.261719 1715.386719 1062.960938 1718.226562 C 1064.660156 1721.0625 1066.292969 1723.941406 1067.851562 1726.859375 C 1069.410156 1729.773438 1070.898438 1732.730469 1072.3125 1735.71875 C 1073.726562 1738.710938 1075.066406 1741.734375 1076.332031 1744.789062 C 1077.597656 1747.84375 1078.789062 1750.929688 1079.902344 1754.042969 C 1081.015625 1757.160156 1082.054688 1760.300781 1083.015625 1763.464844 C 1083.972656 1766.628906 1084.855469 1769.816406 1085.660156 1773.027344 C 1086.464844 1776.234375 1087.1875 1779.460938 1087.832031 1782.707031 C 1088.480469 1785.949219 1089.042969 1789.207031 1089.53125 1792.480469 C 1090.015625 1795.753906 1090.421875 1799.035156 1090.746094 1802.328125 C 1091.070312 1805.617188 1091.3125 1808.917969 1091.472656 1812.222656 C 1091.636719 1815.523438 1091.71875 1818.832031 1091.71875 1822.140625 Z M 1091.71875 1822.140625 " fill-opacity="1" fill-rule="nonzero"/></g><g clip-path="url(#17a19fbd08)"><path fill="#403f3f" d="M 2479.925781 1322.421875 C 2479.925781 1325.730469 2479.84375 1329.035156 2479.683594 1332.339844 C 2479.519531 1335.644531 2479.277344 1338.941406 2478.953125 1342.234375 C 2478.628906 1345.523438 2478.222656 1348.808594 2477.738281 1352.078125 C 2477.253906 1355.351562 2476.6875 1358.609375 2476.042969 1361.855469 C 2475.398438 1365.097656 2474.671875 1368.324219 2473.867188 1371.535156 C 2473.066406 1374.742188 2472.183594 1377.929688 2471.222656 1381.09375 C 2470.261719 1384.261719 2469.226562 1387.402344 2468.109375 1390.515625 C 2466.996094 1393.628906 2465.804688 1396.714844 2464.539062 1399.769531 C 2463.273438 1402.828125 2461.933594 1405.851562 2460.519531 1408.839844 C 2459.105469 1411.832031 2457.617188 1414.785156 2456.058594 1417.703125 C 2454.5 1420.621094 2452.871094 1423.496094 2451.167969 1426.335938 C 2449.46875 1429.171875 2447.699219 1431.964844 2445.863281 1434.714844 C 2444.023438 1437.464844 2442.121094 1440.171875 2440.148438 1442.828125 C 2438.179688 1445.484375 2436.144531 1448.089844 2434.046875 1450.648438 C 2431.949219 1453.207031 2429.789062 1455.710938 2427.566406 1458.160156 C 2425.34375 1460.609375 2423.0625 1463.007812 2420.726562 1465.34375 C 2418.386719 1467.683594 2415.992188 1469.964844 2413.539062 1472.1875 C 2411.089844 1474.40625 2408.585938 1476.566406 2406.027344 1478.667969 C 2403.472656 1480.765625 2400.863281 1482.800781 2398.207031 1484.769531 C 2395.550781 1486.738281 2392.847656 1488.644531 2390.097656 1490.480469 C 2387.34375 1492.320312 2384.550781 1494.089844 2381.714844 1495.789062 C 2378.875 1497.492188 2376 1499.121094 2373.082031 1500.679688 C 2370.164062 1502.238281 2367.210938 1503.726562 2364.21875 1505.140625 C 2361.230469 1506.554688 2358.207031 1507.894531 2355.152344 1509.160156 C 2352.09375 1510.425781 2349.007812 1511.617188 2345.894531 1512.730469 C 2342.78125 1513.84375 2339.640625 1514.882812 2336.476562 1515.84375 C 2333.308594 1516.804688 2330.121094 1517.683594 2326.914062 1518.488281 C 2323.703125 1519.292969 2320.476562 1520.015625 2317.234375 1520.664062 C 2313.988281 1521.308594 2310.730469 1521.875 2307.460938 1522.359375 C 2304.1875 1522.84375 2300.90625 1523.25 2297.613281 1523.574219 C 2294.320312 1523.898438 2291.023438 1524.140625 2287.71875 1524.304688 C 2284.414062 1524.464844 2281.109375 1524.546875 2277.800781 1524.546875 C 2274.492188 1524.546875 2271.1875 1524.464844 2267.882812 1524.304688 C 2264.578125 1524.140625 2261.28125 1523.898438 2257.988281 1523.574219 C 2254.699219 1523.25 2251.414062 1522.84375 2248.144531 1522.359375 C 2244.871094 1521.875 2241.613281 1521.308594 2238.367188 1520.664062 C 2235.125 1520.015625 2231.898438 1519.292969 2228.6875 1518.488281 C 2225.480469 1517.683594 2222.292969 1516.804688 2219.128906 1515.84375 C 2215.960938 1514.882812 2212.820312 1513.84375 2209.707031 1512.730469 C 2206.59375 1511.617188 2203.507812 1510.425781 2200.453125 1509.160156 C 2197.394531 1507.894531 2194.371094 1506.554688 2191.382812 1505.140625 C 2188.390625 1503.726562 2185.4375 1502.238281 2182.519531 1500.679688 C 2179.601562 1499.121094 2176.726562 1497.492188 2173.886719 1495.789062 C 2171.050781 1494.089844 2168.257812 1492.320312 2165.507812 1490.480469 C 2162.757812 1488.644531 2160.050781 1486.738281 2157.394531 1484.769531 C 2154.738281 1482.800781 2152.132812 1480.765625 2149.574219 1478.667969 C 2147.015625 1476.566406 2144.511719 1474.40625 2142.0625 1472.1875 C 2139.609375 1469.964844 2137.214844 1467.683594 2134.878906 1465.34375 C 2132.539062 1463.007812 2130.257812 1460.609375 2128.035156 1458.160156 C 2125.816406 1455.710938 2123.65625 1453.207031 2121.554688 1450.648438 C 2119.457031 1448.089844 2117.421875 1445.484375 2115.453125 1442.828125 C 2113.480469 1440.171875 2111.578125 1437.464844 2109.742188 1434.714844 C 2107.902344 1431.964844 2106.132812 1429.171875 2104.433594 1426.335938 C 2102.730469 1423.496094 2101.101562 1420.621094 2099.542969 1417.703125 C 2097.984375 1414.785156 2096.496094 1411.832031 2095.082031 1408.839844 C 2093.667969 1405.851562 2092.328125 1402.828125 2091.0625 1399.769531 C 2089.796875 1396.714844 2088.605469 1393.628906 2087.492188 1390.515625 C 2086.378906 1387.402344 2085.339844 1384.261719 2084.378906 1381.09375 C 2083.417969 1377.929688 2082.539062 1374.742188 2081.734375 1371.535156 C 2080.929688 1368.324219 2080.207031 1365.097656 2079.558594 1361.855469 C 2078.914062 1358.609375 2078.347656 1355.351562 2077.863281 1352.078125 C 2077.378906 1348.808594 2076.972656 1345.523438 2076.648438 1342.234375 C 2076.324219 1338.941406 2076.082031 1335.644531 2075.917969 1332.339844 C 2075.757812 1329.035156 2075.675781 1325.730469 2075.675781 1322.421875 C 2075.675781 1319.113281 2075.757812 1315.808594 2075.917969 1312.503906 C 2076.082031 1309.199219 2076.324219 1305.902344 2076.648438 1302.609375 C 2076.972656 1299.316406 2077.378906 1296.035156 2077.863281 1292.761719 C 2078.347656 1289.492188 2078.914062 1286.234375 2079.558594 1282.988281 C 2080.207031 1279.746094 2080.929688 1276.519531 2081.734375 1273.308594 C 2082.539062 1270.101562 2083.417969 1266.914062 2084.378906 1263.746094 C 2085.339844 1260.582031 2086.378906 1257.441406 2087.492188 1254.328125 C 2088.605469 1251.214844 2089.796875 1248.128906 2091.0625 1245.070312 C 2092.328125 1242.015625 2093.667969 1238.992188 2095.082031 1236 C 2096.496094 1233.011719 2097.984375 1230.058594 2099.542969 1227.140625 C 2101.101562 1224.222656 2102.730469 1221.34375 2104.433594 1218.507812 C 2106.132812 1215.671875 2107.902344 1212.878906 2109.742188 1210.125 C 2111.578125 1207.375 2113.480469 1204.671875 2115.453125 1202.015625 C 2117.421875 1199.359375 2119.457031 1196.75 2121.554688 1194.195312 C 2123.65625 1191.636719 2125.816406 1189.132812 2128.035156 1186.683594 C 2130.257812 1184.230469 2132.539062 1181.835938 2134.878906 1179.496094 C 2137.214844 1177.160156 2139.609375 1174.878906 2142.0625 1172.65625 C 2144.511719 1170.433594 2147.015625 1168.273438 2149.574219 1166.175781 C 2152.132812 1164.078125 2154.738281 1162.042969 2157.394531 1160.074219 C 2160.050781 1158.101562 2162.757812 1156.199219 2165.507812 1154.359375 C 2168.257812 1152.523438 2171.050781 1150.753906 2173.886719 1149.054688 C 2176.726562 1147.351562 2179.601562 1145.722656 2182.519531 1144.164062 C 2185.4375 1142.605469 2188.390625 1141.117188 2191.382812 1139.703125 C 2194.371094 1138.289062 2197.394531 1136.949219 2200.453125 1135.683594 C 2203.507812 1134.417969 2206.59375 1133.226562 2209.707031 1132.113281 C 2212.820312 1130.996094 2215.960938 1129.960938 2219.128906 1129 C 2222.292969 1128.039062 2225.480469 1127.15625 2228.6875 1126.355469 C 2231.898438 1125.550781 2235.125 1124.824219 2238.367188 1124.179688 C 2241.613281 1123.535156 2244.871094 1122.96875 2248.144531 1122.484375 C 2251.414062 1122 2254.699219 1121.59375 2257.988281 1121.269531 C 2261.28125 1120.945312 2264.578125 1120.703125 2267.882812 1120.539062 C 2271.1875 1120.378906 2274.492188 1120.296875 2277.800781 1120.296875 C 2281.109375 1120.296875 2284.414062 1120.378906 2287.71875 1120.539062 C 2291.023438 1120.703125 2294.320312 1120.945312 2297.613281 1121.269531 C 2300.90625 1121.59375 2304.1875 1122 2307.460938 1122.484375 C 2310.730469 1122.96875 2313.988281 1123.535156 2317.234375 1124.179688 C 2320.476562 1124.824219 2323.703125 1125.550781 2326.914062 1126.355469 C 2330.121094 1127.15625 2333.308594 1128.039062 2336.476562 1129 C 2339.640625 1129.960938 2342.78125 1130.996094 2345.894531 1132.113281 C 2349.007812 1133.226562 2352.09375 1134.417969 2355.152344 1135.683594 C 2358.207031 1136.949219 2361.230469 1138.289062 2364.222656 1139.703125 C 2367.210938 1141.117188 2370.164062 1142.605469 2373.082031 1144.164062 C 2376 1145.722656 2378.875 1147.351562 2381.714844 1149.054688 C 2384.550781 1150.753906 2387.34375 1152.523438 2390.097656 1154.359375 C 2392.847656 1156.199219 2395.550781 1158.101562 2398.207031 1160.074219 C 2400.863281 1162.042969 2403.472656 1164.078125 2406.027344 1166.175781 C 2408.585938 1168.273438 2411.089844 1170.433594 2413.539062 1172.65625 C 2415.992188 1174.878906 2418.386719 1177.160156 2420.726562 1179.496094 C 2423.0625 1181.835938 2425.34375 1184.230469 2427.566406 1186.683594 C 2429.789062 1189.132812 2431.949219 1191.636719 2434.046875 1194.195312 C 2436.144531 1196.75 2438.179688 1199.359375 2440.148438 1202.015625 C 2442.121094 1204.671875 2444.023438 1207.375 2445.863281 1210.125 C 2447.699219 1212.878906 2449.46875 1215.671875 2451.167969 1218.507812 C 2452.871094 1221.34375 2454.5 1224.222656 2456.058594 1227.140625 C 2457.617188 1230.058594 2459.105469 1233.011719 2460.519531 1236 C 2461.933594 1238.992188 2463.273438 1242.015625 2464.539062 1245.070312 C 2465.804688 1248.128906 2466.996094 1251.214844 2468.109375 1254.328125 C 2469.226562 1257.441406 2470.261719 1260.582031 2471.222656 1263.746094 C 2472.183594 1266.914062 2473.066406 1270.101562 2473.867188 1273.308594 C 2474.671875 1276.519531 2475.398438 1279.746094 2476.042969 1282.988281 C 2476.6875 1286.234375 2477.253906 1289.492188 2477.738281 1292.761719 C 2478.222656 1296.035156 2478.628906 1299.316406 2478.953125 1302.609375 C 2479.277344 1305.902344 2479.519531 1309.199219 2479.683594 1312.503906 C 2479.84375 1315.808594 2479.925781 1319.113281 2479.925781 1322.421875 Z M 2479.925781 1322.421875 " fill-opacity="1" fill-rule="nonzero"/></g><g clip-path="url(#e91cf9b36a)"><path fill="#403f3f" d="M 632.101562 1322.421875 C 632.101562 1325.730469 632.019531 1329.035156 631.859375 1332.339844 C 631.695312 1335.644531 631.453125 1338.941406 631.128906 1342.234375 C 630.804688 1345.523438 630.398438 1348.808594 629.914062 1352.078125 C 629.429688 1355.351562 628.863281 1358.609375 628.21875 1361.855469 C 627.574219 1365.097656 626.847656 1368.324219 626.042969 1371.535156 C 625.242188 1374.742188 624.359375 1377.929688 623.398438 1381.09375 C 622.4375 1384.261719 621.402344 1387.402344 620.285156 1390.515625 C 619.171875 1393.628906 617.980469 1396.714844 616.714844 1399.769531 C 615.449219 1402.828125 614.109375 1405.851562 612.695312 1408.839844 C 611.28125 1411.832031 609.796875 1414.785156 608.234375 1417.703125 C 606.675781 1420.621094 605.046875 1423.496094 603.347656 1426.335938 C 601.644531 1429.171875 599.875 1431.964844 598.039062 1434.714844 C 596.199219 1437.464844 594.296875 1440.171875 592.324219 1442.828125 C 590.355469 1445.484375 588.320312 1448.089844 586.222656 1450.648438 C 584.125 1453.207031 581.964844 1455.710938 579.742188 1458.160156 C 577.519531 1460.609375 575.242188 1463.007812 572.902344 1465.34375 C 570.5625 1467.683594 568.167969 1469.964844 565.714844 1472.1875 C 563.265625 1474.40625 560.761719 1476.566406 558.203125 1478.667969 C 555.648438 1480.765625 553.039062 1482.800781 550.382812 1484.769531 C 547.726562 1486.738281 545.023438 1488.644531 542.273438 1490.480469 C 539.523438 1492.320312 536.726562 1494.089844 533.890625 1495.789062 C 531.054688 1497.492188 528.175781 1499.121094 525.257812 1500.679688 C 522.339844 1502.238281 519.386719 1503.726562 516.398438 1505.140625 C 513.40625 1506.554688 510.382812 1507.894531 507.328125 1509.160156 C 504.269531 1510.425781 501.1875 1511.617188 498.070312 1512.730469 C 494.957031 1513.84375 491.816406 1514.882812 488.652344 1515.84375 C 485.484375 1516.804688 482.296875 1517.683594 479.089844 1518.488281 C 475.882812 1519.292969 472.65625 1520.015625 469.410156 1520.664062 C 466.164062 1521.308594 462.90625 1521.875 459.636719 1522.359375 C 456.363281 1522.84375 453.082031 1523.25 449.789062 1523.574219 C 446.496094 1523.898438 443.199219 1524.140625 439.894531 1524.304688 C 436.589844 1524.464844 433.285156 1524.546875 429.976562 1524.546875 C 426.667969 1524.546875 423.363281 1524.464844 420.058594 1524.304688 C 416.753906 1524.140625 413.457031 1523.898438 410.164062 1523.574219 C 406.875 1523.25 403.589844 1522.84375 400.320312 1522.359375 C 397.046875 1521.875 393.789062 1521.308594 390.542969 1520.664062 C 387.300781 1520.015625 384.074219 1519.292969 380.863281 1518.488281 C 377.65625 1517.683594 374.46875 1516.804688 371.304688 1515.84375 C 368.136719 1514.882812 365 1513.84375 361.882812 1512.730469 C 358.769531 1511.617188 355.683594 1510.425781 352.628906 1509.160156 C 349.570312 1507.894531 346.546875 1506.554688 343.558594 1505.140625 C 340.566406 1503.726562 337.613281 1502.238281 334.695312 1500.679688 C 331.777344 1499.121094 328.902344 1497.492188 326.0625 1495.789062 C 323.226562 1494.089844 320.433594 1492.320312 317.683594 1490.480469 C 314.933594 1488.644531 312.230469 1486.738281 309.570312 1484.769531 C 306.914062 1482.800781 304.308594 1480.765625 301.75 1478.667969 C 299.195312 1476.566406 296.691406 1474.40625 294.238281 1472.1875 C 291.789062 1469.964844 289.390625 1467.683594 287.054688 1465.34375 C 284.714844 1463.007812 282.433594 1460.609375 280.210938 1458.160156 C 277.992188 1455.710938 275.832031 1453.207031 273.734375 1450.648438 C 271.632812 1448.089844 269.597656 1445.484375 267.628906 1442.828125 C 265.660156 1440.171875 263.753906 1437.464844 261.917969 1434.714844 C 260.078125 1431.964844 258.308594 1429.171875 256.609375 1426.335938 C 254.910156 1423.496094 253.277344 1420.621094 251.71875 1417.703125 C 250.160156 1414.785156 248.671875 1411.832031 247.257812 1408.839844 C 245.84375 1405.851562 244.503906 1402.828125 243.238281 1399.769531 C 241.972656 1396.714844 240.78125 1393.628906 239.667969 1390.515625 C 238.554688 1387.402344 237.515625 1384.261719 236.554688 1381.09375 C 235.59375 1377.929688 234.714844 1374.742188 233.910156 1371.535156 C 233.105469 1368.324219 232.382812 1365.097656 231.734375 1361.855469 C 231.089844 1358.609375 230.527344 1355.351562 230.039062 1352.078125 C 229.554688 1348.808594 229.148438 1345.523438 228.824219 1342.234375 C 228.5 1338.941406 228.257812 1335.644531 228.097656 1332.339844 C 227.933594 1329.035156 227.851562 1325.730469 227.851562 1322.421875 C 227.851562 1319.113281 227.933594 1315.808594 228.097656 1312.503906 C 228.257812 1309.199219 228.5 1305.902344 228.824219 1302.609375 C 229.148438 1299.316406 229.554688 1296.035156 230.039062 1292.761719 C 230.527344 1289.492188 231.089844 1286.234375 231.734375 1282.988281 C 232.382812 1279.746094 233.105469 1276.519531 233.910156 1273.308594 C 234.714844 1270.101562 235.59375 1266.914062 236.554688 1263.746094 C 237.515625 1260.582031 238.554688 1257.441406 239.667969 1254.328125 C 240.78125 1251.214844 241.972656 1248.128906 243.238281 1245.070312 C 244.503906 1242.015625 245.84375 1238.992188 247.257812 1236 C 248.671875 1233.011719 250.160156 1230.058594 251.71875 1227.140625 C 253.277344 1224.222656 254.910156 1221.34375 256.609375 1218.507812 C 258.308594 1215.671875 260.078125 1212.878906 261.917969 1210.125 C 263.753906 1207.375 265.660156 1204.671875 267.628906 1202.015625 C 269.597656 1199.359375 271.632812 1196.75 273.734375 1194.195312 C 275.832031 1191.636719 277.992188 1189.132812 280.210938 1186.683594 C 282.433594 1184.230469 284.714844 1181.835938 287.054688 1179.496094 C 289.390625 1177.160156 291.789062 1174.878906 294.238281 1172.65625 C 296.691406 1170.433594 299.195312 1168.273438 301.75 1166.175781 C 304.308594 1164.078125 306.914062 1162.042969 309.570312 1160.074219 C 312.230469 1158.101562 314.933594 1156.199219 317.683594 1154.359375 C 320.433594 1152.523438 323.226562 1150.753906 326.0625 1149.054688 C 328.902344 1147.351562 331.777344 1145.722656 334.695312 1144.164062 C 337.613281 1142.605469 340.566406 1141.117188 343.558594 1139.703125 C 346.546875 1138.289062 349.570312 1136.949219 352.628906 1135.683594 C 355.683594 1134.417969 358.769531 1133.226562 361.882812 1132.113281 C 365 1130.996094 368.136719 1129.960938 371.304688 1129 C 374.46875 1128.039062 377.65625 1127.15625 380.863281 1126.355469 C 384.074219 1125.550781 387.300781 1124.824219 390.542969 1124.179688 C 393.789062 1123.535156 397.046875 1122.96875 400.320312 1122.484375 C 403.589844 1122 406.875 1121.59375 410.164062 1121.269531 C 413.457031 1120.945312 416.753906 1120.703125 420.058594 1120.539062 C 423.363281 1120.378906 426.667969 1120.296875 429.976562 1120.296875 C 433.285156 1120.296875 436.589844 1120.378906 439.894531 1120.539062 C 443.199219 1120.703125 446.496094 1120.945312 449.789062 1121.269531 C 453.082031 1121.59375 456.363281 1122 459.636719 1122.484375 C 462.90625 1122.96875 466.164062 1123.535156 469.410156 1124.179688 C 472.65625 1124.824219 475.882812 1125.550781 479.089844 1126.355469 C 482.296875 1127.15625 485.484375 1128.039062 488.652344 1129 C 491.816406 1129.960938 494.957031 1130.996094 498.070312 1132.113281 C 501.1875 1133.226562 504.269531 1134.417969 507.328125 1135.683594 C 510.382812 1136.949219 513.40625 1138.289062 516.398438 1139.703125 C 519.386719 1141.117188 522.339844 1142.605469 525.257812 1144.164062 C 528.175781 1145.722656 531.054688 1147.351562 533.890625 1149.054688 C 536.726562 1150.753906 539.523438 1152.523438 542.273438 1154.359375 C 545.023438 1156.199219 547.726562 1158.101562 550.382812 1160.074219 C 553.039062 1162.042969 555.648438 1164.078125 558.203125 1166.175781 C 560.761719 1168.273438 563.265625 1170.433594 565.714844 1172.65625 C 568.167969 1174.878906 570.5625 1177.160156 572.902344 1179.496094 C 575.242188 1181.835938 577.519531 1184.230469 579.742188 1186.683594 C 581.964844 1189.132812 584.125 1191.636719 586.222656 1194.195312 C 588.320312 1196.75 590.355469 1199.359375 592.324219 1202.015625 C 594.296875 1204.671875 596.199219 1207.375 598.039062 1210.125 C 599.875 1212.878906 601.644531 1215.671875 603.347656 1218.507812 C 605.046875 1221.34375 606.675781 1224.222656 608.234375 1227.140625 C 609.796875 1230.058594 611.28125 1233.011719 612.695312 1236 C 614.109375 1238.992188 615.449219 1242.015625 616.714844 1245.070312 C 617.980469 1248.128906 619.171875 1251.214844 620.285156 1254.328125 C 621.402344 1257.441406 622.4375 1260.582031 623.398438 1263.746094 C 624.359375 1266.914062 625.242188 1270.101562 626.046875 1273.308594 C 626.847656 1276.519531 627.574219 1279.746094 628.21875 1282.988281 C 628.863281 1286.234375 629.429688 1289.492188 629.914062 1292.761719 C 630.398438 1296.035156 630.804688 1299.316406 631.128906 1302.609375 C 631.453125 1305.902344 631.695312 1309.199219 631.859375 1312.503906 C 632.019531 1315.808594 632.101562 1319.113281 632.101562 1322.421875 Z M 632.101562 1322.421875 " fill-opacity="1" fill-rule="nonzero"/></g><g clip-path="url(#90506c8390)"><path fill="#97c6a5" d="M 409.117188 1239.226562 L 346.792969 1239.226562 C 335.316406 1239.226562 326.121094 1248.5 326.121094 1259.945312 L 326.019531 1384.253906 C 326.019531 1395.703125 335.316406 1404.972656 346.792969 1404.972656 L 512.992188 1404.972656 C 524.472656 1404.972656 533.769531 1395.703125 533.769531 1384.253906 L 533.769531 1280.664062 C 533.769531 1269.21875 524.472656 1259.945312 512.992188 1259.945312 L 429.894531 1259.945312 Z M 409.117188 1239.226562 " fill-opacity="1" fill-rule="nonzero"/></g><g clip-path="url(#d9e6d0c7aa)"><path fill="#d597e1" d="M 933.203125 1925.457031 L 774.527344 1925.457031 C 762.34375 1925.457031 752.464844 1915.574219 752.464844 1903.375 L 752.464844 1846.308594 C 752.464844 1834.121094 762.34375 1824.238281 774.527344 1824.238281 L 933.203125 1824.238281 C 945.386719 1824.238281 955.265625 1834.121094 955.265625 1846.308594 L 955.265625 1903.375 C 955.265625 1915.574219 945.386719 1925.457031 933.203125 1925.457031 " fill-opacity="1" fill-rule="nonzero"/></g><g clip-path="url(#35a9290e4d)"><path fill="#d597e1" d="M 1004.179688 1818.71875 L 845.503906 1818.71875 C 833.320312 1818.71875 823.457031 1808.835938 823.457031 1796.652344 L 823.457031 1739.582031 C 823.457031 1727.398438 833.320312 1717.515625 845.503906 1717.515625 L 1004.179688 1717.515625 C 1016.363281 1717.515625 1026.242188 1727.398438 1026.242188 1739.582031 L 1026.242188 1796.652344 C 1026.242188 1808.835938 1016.363281 1818.71875 1004.179688 1818.71875 " fill-opacity="1" fill-rule="nonzero"/></g><path fill="#d597e1" d="M 808.140625 1943.09375 L 804.609375 1920.804688 C 804.429688 1919.726562 803.503906 1918.929688 802.414062 1918.929688 L 776.433594 1918.929688 C 774.292969 1918.929688 773.382812 1921.632812 775.09375 1922.929688 L 804.609375 1945.21875 C 806.207031 1946.417969 808.457031 1945.066406 808.140625 1943.09375 " fill-opacity="1" fill-rule="nonzero"/><path fill="#d597e1" d="M 974.253906 1836.824219 L 977.785156 1814.539062 C 977.964844 1813.445312 978.890625 1812.660156 979.992188 1812.660156 L 1005.976562 1812.660156 C 1008.097656 1812.660156 1009.011719 1815.363281 1007.3125 1816.648438 L 977.785156 1838.949219 C 976.199219 1840.152344 973.949219 1838.800781 974.253906 1836.824219 " fill-opacity="1" fill-rule="nonzero"/><path stroke-linecap="round" transform="matrix(0.137979, 0, 0, -0.13801, 596.011968, 2125.004313)" fill="none" stroke-linejoin="round" d="M 1839.501355 2730.898451 L 2924.501334 2730.898451 " stroke="#ffffff" stroke-width="30" stroke-opacity="1" stroke-miterlimit="10"/><path stroke-linecap="round" transform="matrix(0.137979, 0, 0, -0.13801, 596.011968, 2125.004313)" fill="none" stroke-linejoin="round" d="M 1839.501355 2585.896402 L 2924.501334 2585.896402 " stroke="#ffffff" stroke-width="30" stroke-opacity="1" stroke-miterlimit="10"/><path stroke-linecap="round" transform="matrix(0.137979, 0, 0, -0.13801, 596.011968, 2125.004313)" fill="none" stroke-linejoin="round" d="M 1839.501355 2440.894354 L 2924.501334 2440.894354 " stroke="#ffffff" stroke-width="30" stroke-opacity="1" stroke-miterlimit="10"/><path stroke-linecap="round" transform="matrix(0.137979, 0, 0, -0.13801, 596.011968, 2125.004313)" fill="none" stroke-linejoin="round" d="M 1326.28858 1957.601366 L 2411.288559 1957.601366 " stroke="#ffffff" stroke-width="30" stroke-opacity="1" stroke-miterlimit="10"/><path stroke-linecap="round" transform="matrix(0.137979, 0, 0, -0.13801, 596.011968, 2125.004313)" fill="none" stroke-linejoin="round" d="M 1326.28858 1812.599317 L 2411.288559 1812.599317 " stroke="#ffffff" stroke-width="30" stroke-opacity="1" stroke-miterlimit="10"/><path stroke-linecap="round" transform="matrix(0.137979, 0, 0, -0.13801, 596.011968, 2125.004313)" fill="none" stroke-linejoin="round" d="M 1326.28858 1667.597269 L 2411.288559 1667.597269 " stroke="#ffffff" stroke-width="30" stroke-opacity="1" stroke-miterlimit="10"/><g clip-path="url(#356dd63320)"><path fill="#85cbe1" d="M 1241.550781 1411.769531 L 1465.792969 1411.769531 L 1465.792969 1366.957031 L 1241.550781 1366.957031 Z M 1263.976562 1378.160156 L 1286.398438 1378.160156 L 1286.398438 1400.566406 L 1263.976562 1400.566406 Z M 1241.550781 1232.519531 L 1241.550781 1277.332031 L 1465.792969 1277.332031 L 1465.792969 1232.519531 Z M 1286.398438 1266.128906 L 1263.976562 1266.128906 L 1263.976562 1243.722656 L 1286.398438 1243.722656 Z M 1241.550781 1344.550781 L 1465.792969 1344.550781 L 1465.792969 1299.738281 L 1241.550781 1299.738281 Z M 1263.976562 1310.941406 L 1286.398438 1310.941406 L 1286.398438 1333.347656 L 1263.976562 1333.347656 Z M 1263.976562 1310.941406 " fill-opacity="1" fill-rule="nonzero"/></g><path fill="#ffa070" d="M 1751.832031 1902.128906 L 1746.691406 1902.128906 L 1746.691406 1741.574219 L 1751.832031 1741.574219 L 1751.832031 1902.128906 " fill-opacity="1" fill-rule="nonzero"/><path fill="#ffa070" d="M 1889.328125 1902.128906 L 1884.1875 1902.128906 L 1884.1875 1741.574219 L 1889.328125 1741.574219 L 1889.328125 1902.128906 " fill-opacity="1" fill-rule="nonzero"/><path fill="#ffa070" d="M 1829.789062 1825.964844 C 1829.789062 1799.097656 1874.03125 1824.378906 1874.03125 1741.535156 L 1761.652344 1741.535156 C 1761.652344 1824.378906 1805.894531 1799.097656 1805.894531 1825.964844 C 1805.894531 1852.832031 1761.652344 1835.269531 1761.652344 1910.386719 L 1874.03125 1910.386719 C 1874.03125 1835.269531 1829.789062 1852.832031 1829.789062 1825.964844 " fill-opacity="1" fill-rule="nonzero"/><path fill="#403f3f" d="M 1824.414062 1825.964844 C 1824.414062 1806.511719 1838.726562 1813.253906 1849.039062 1799.839844 C 1839.945312 1791.585938 1825.53125 1793.507812 1811.902344 1786.703125 C 1801.050781 1780.796875 1787.082031 1780.125 1775.773438 1781.617188 C 1784.742188 1817.371094 1811.261719 1800.632812 1811.261719 1825.964844 C 1811.261719 1851.519531 1770.296875 1840.667969 1770.296875 1906.269531 L 1865.386719 1906.269531 C 1865.386719 1839.480469 1824.414062 1851.519531 1824.414062 1825.964844 " fill-opacity="1" fill-rule="nonzero"/><g clip-path="url(#347cb7ee69)"><path fill="#ffa070" d="M 1890.714844 1745.652344 L 1745.304688 1745.652344 C 1741.652344 1745.652344 1738.6875 1742.691406 1738.6875 1739.03125 L 1738.6875 1727.570312 C 1738.6875 1723.921875 1741.652344 1720.960938 1745.304688 1720.960938 L 1890.714844 1720.960938 C 1894.367188 1720.960938 1897.332031 1723.921875 1897.332031 1727.570312 L 1897.332031 1739.03125 C 1897.332031 1742.691406 1894.367188 1745.652344 1890.714844 1745.652344 " fill-opacity="1" fill-rule="nonzero"/></g><g clip-path="url(#2d6a232123)"><path fill="#ffa070" d="M 1890.714844 1922.730469 L 1745.304688 1922.730469 C 1741.652344 1922.730469 1738.6875 1919.773438 1738.6875 1916.121094 L 1738.6875 1904.664062 C 1738.6875 1901 1741.652344 1898.042969 1745.304688 1898.042969 L 1890.714844 1898.042969 C 1894.367188 1898.042969 1897.332031 1901 1897.332031 1904.664062 L 1897.332031 1916.121094 C 1897.332031 1919.773438 1894.367188 1922.730469 1890.714844 1922.730469 " fill-opacity="1" fill-rule="nonzero"/></g><g clip-path="url(#de0a14020f)"><path fill="#ffe087" d="M 2384.628906 1280.976562 C 2372.480469 1218.328125 2296.3125 1217.28125 2277.53125 1275.847656 C 2258.75 1217.28125 2182.578125 1218.328125 2170.429688 1280.976562 C 2159.402344 1337.816406 2277.53125 1427.492188 2277.53125 1427.492188 C 2277.53125 1427.492188 2395.65625 1337.816406 2384.628906 1280.976562 Z M 2384.628906 1280.976562 " fill-opacity="1" fill-rule="nonzero"/></g><g fill="#403f3f" fill-opacity="1"><g transform="translate(722.867987, 643.716518)"><g><path d="M 81.921875 -64.800781 L 28.800781 -64.800781 L 28.800781 -112.320312 L 9.601562 -112.320312 L 9.601562 0 L 28.800781 0 L 28.800781 -62.398438 L 81.921875 -62.398438 L 81.921875 0 L 101.121094 0 L 101.121094 -112.320312 L 81.921875 -112.320312 Z M 81.921875 -64.800781 "/></g></g></g><g fill="#403f3f" fill-opacity="1"><g transform="translate(841.587772, 643.716518)"><g><path d="M 51.519531 2.71875 C 79.679688 2.71875 97.761719 -16.160156 97.761719 -45.921875 C 97.761719 -76 79.679688 -95.199219 51.519531 -95.199219 C 22.71875 -95.199219 5.28125 -76 5.28125 -45.921875 C 5.28125 -16.160156 22.71875 2.71875 51.519531 2.71875 Z M 51.519531 0.320312 C 32.640625 0.320312 23.519531 -22.398438 23.519531 -45.921875 C 23.519531 -68.160156 32.640625 -92.800781 51.519531 -92.800781 C 69.441406 -92.800781 79.519531 -68.160156 79.519531 -45.921875 C 79.519531 -22.398438 69.441406 0.320312 51.519531 0.320312 Z M 51.519531 0.320312 "/></g></g></g><g fill="#403f3f" fill-opacity="1"><g transform="translate(952.467593, 643.716518)"><g><path d="M 46.878906 0 L 76.160156 -75.839844 L 105.761719 0 L 117.921875 0 L 153.761719 -92.480469 L 140.960938 -92.480469 C 142.558594 -79.199219 141.921875 -67.039062 137.121094 -55.039062 L 120.320312 -12.160156 L 89.121094 -92.480469 L 80.480469 -92.480469 L 51.839844 -18.078125 L 22.878906 -92.480469 L 3.839844 -92.480469 L 39.519531 0 Z M 46.878906 0 "/></g></g></g><g fill="#403f3f" fill-opacity="1"><g transform="translate(1119.827327, 643.716518)"><g/></g></g><g fill="#403f3f" fill-opacity="1"><g transform="translate(1164.627243, 643.716518)"><g><path d="M 157.601562 -112.320312 C 159.199219 -96.800781 157.121094 -80.480469 150.558594 -61.441406 L 130.71875 -3.519531 L 93.28125 -112.320312 L 74.078125 -112.320312 L 87.199219 -74.238281 L 62.878906 -3.519531 L 25.441406 -112.320312 L 6.238281 -112.320312 L 44.800781 0 L 64 0 L 88.320312 -70.71875 L 112.640625 0 L 131.839844 0 L 170.398438 -112.320312 Z M 157.601562 -112.320312 "/></g></g></g><g fill="#403f3f" fill-opacity="1"><g transform="translate(1349.426913, 643.716518)"><g><path d="M 56.320312 2.238281 C 69.28125 2.238281 82.878906 -2.078125 94.878906 -11.519531 L 90.878906 -24.320312 C 78.398438 -8 65.601562 -0.160156 54.71875 -0.160156 C 37.921875 -0.160156 24.960938 -16.960938 24.320312 -45.601562 L 93.761719 -45.601562 C 94.71875 -49.601562 95.199219 -53.441406 95.199219 -56.960938 C 95.199219 -82.558594 75.039062 -95.199219 53.761719 -95.199219 C 30.238281 -95.199219 5.28125 -79.519531 5.28125 -48.320312 C 5.28125 -17.28125 29.121094 2.238281 56.320312 2.238281 Z M 24.320312 -48 C 24.640625 -77.441406 40 -92.640625 53.921875 -92.640625 C 66.238281 -92.640625 77.601562 -81.441406 77.601562 -58.078125 C 77.601562 -54.878906 77.28125 -51.519531 76.640625 -48 Z M 24.320312 -48 "/></g></g></g><g fill="#403f3f" fill-opacity="1"><g transform="translate(1458.866751, 643.716518)"><g/></g></g><g fill="#403f3f" fill-opacity="1"><g transform="translate(1503.666704, 643.716518)"><g><path d="M 157.601562 -112.320312 C 159.199219 -96.800781 157.121094 -80.480469 150.558594 -61.441406 L 130.71875 -3.519531 L 93.28125 -112.320312 L 74.078125 -112.320312 L 87.199219 -74.238281 L 62.878906 -3.519531 L 25.441406 -112.320312 L 6.238281 -112.320312 L 44.800781 0 L 64 0 L 88.320312 -70.71875 L 112.640625 0 L 131.839844 0 L 170.398438 -112.320312 Z M 157.601562 -112.320312 "/></g></g></g><g fill="#403f3f" fill-opacity="1"><g transform="translate(1688.466337, 643.716518)"><g><path d="M 51.519531 2.71875 C 79.679688 2.71875 97.761719 -16.160156 97.761719 -45.921875 C 97.761719 -76 79.679688 -95.199219 51.519531 -95.199219 C 22.71875 -95.199219 5.28125 -76 5.28125 -45.921875 C 5.28125 -16.160156 22.71875 2.71875 51.519531 2.71875 Z M 51.519531 0.320312 C 32.640625 0.320312 23.519531 -22.398438 23.519531 -45.921875 C 23.519531 -68.160156 32.640625 -92.800781 51.519531 -92.800781 C 69.441406 -92.800781 79.519531 -68.160156 79.519531 -45.921875 C 79.519531 -22.398438 69.441406 0.320312 51.519531 0.320312 Z M 51.519531 0.320312 "/></g></g></g><g fill="#403f3f" fill-opacity="1"><g transform="translate(1799.346147, 643.716518)"><g><path d="M 27.199219 0 L 27.199219 -40.160156 C 35.359375 -73.441406 51.199219 -90.078125 73.28125 -79.679688 L 75.679688 -92.480469 C 53.921875 -100.480469 35.519531 -80.320312 27.359375 -47.039062 L 27.199219 -47.039062 L 27.199219 -92.480469 L 8 -92.480469 L 8 0 Z M 27.199219 0 "/></g></g></g><g fill="#403f3f" fill-opacity="1"><g transform="translate(1889.426018, 643.716518)"><g><path d="M 27.199219 0 L 27.199219 -54.71875 C 35.519531 -58.558594 43.839844 -60.480469 47.519531 -52.320312 L 70.71875 0 L 89.921875 0 L 67.199219 -52.640625 C 62.71875 -63.039062 50.238281 -65.28125 37.761719 -61.121094 L 37.761719 -61.441406 C 50.71875 -68.960938 72.320312 -78.71875 85.28125 -77.921875 L 85.28125 -90.558594 L 27.199219 -57.601562 L 27.199219 -112.320312 L 8 -112.320312 L 8 0 Z M 27.199219 0 "/></g></g></g></svg>